Latin-Mizra-Regular - Kerning, With Production Names.ufo
<glyph name="exclam" format="1">
  <advance width="240"/>
  <unicode hex="0021"/>
  <outline>
    <contour>
      <point x="90" y="162" type="line"/>
      <point x="113" y="184"/>
      <point x="136" y="203"/>
      <point x="160" y="220" type="curve"/>
      <point x="160" y="352"/>
      <point x="165" y="489"/>
      <point x="172" y="547" type="curve"/>
      <point x="128" y="547"/>
      <point x="93" y="541"/>
      <point x="55" y="527" type="curve"/>
      <point x="67" y="502"/>
      <point x="74" y="434"/>
      <point x="74" y="352" type="curve" smooth="yes"/>
      <point x="74" y="162" type="line"/>
    </contour>
    <contour>
      <point x="148" y="8"/>
      <point x="172" y="32"/>
      <point x="195" y="60" type="curve"/>
      <point x="167" y="83"/>
      <point x="143" y="107"/>
      <point x="120" y="135" type="curve"/>
      <point x="92" y="112"/>
      <point x="68" y="88"/>
      <point x="45" y="60" type="curve"/>
      <point x="73" y="37"/>
      <point x="97" y="13"/>
      <point x="120" y="-15" type="curve"/>
    </contour>
  </outline>
</glyph>
<glyph name="ampersand" format="1">
  <advance width="545"/>
  <unicode hex="0026"/>
  <outline>
    <contour>
      <point x="257" y="-11"/>
      <point x="310" y="15"/>
      <point x="350" y="54" type="curve"/>
      <point x="407" y="-6" type="line"/>
      <point x="462" y="-6"/>
      <point x="499" y="0"/>
      <point x="535" y="15" type="curve"/>
      <point x="496" y="43"/>
      <point x="452" y="84"/>
      <point x="409" y="129" type="curve"/>
      <point x="444" y="185"/>
      <point x="471" y="247"/>
      <point x="504" y="294" type="curve"/>
      <point x="468" y="294"/>
      <point x="442" y="292"/>
      <point x="406" y="288" type="curve"/>
      <point x="403" y="246"/>
      <point x="393" y="203"/>
      <point x="376" y="165" type="curve"/>
      <point x="288" y="262"/>
      <point x="213" y="368"/>
      <point x="213" y="407" type="curve" smooth="yes"/>
      <point x="213" y="455"/>
      <point x="247" y="487"/>
      <point x="299" y="487" type="curve"/>
      <point x="350" y="469"/>
      <point x="387" y="443"/>
      <point x="426" y="398" type="curve"/>
      <point x="442" y="421"/>
      <point x="456" y="468"/>
      <point x="456" y="499" type="curve"/>
      <point x="416" y="521"/>
      <point x="366" y="533"/>
      <point x="310" y="533" type="curve" smooth="yes"/>
      <point x="197" y="533"/>
      <point x="117" y="477"/>
      <point x="117" y="398" type="curve" smooth="yes"/>
      <point x="117" y="364"/>
      <point x="130" y="327"/>
      <point x="165" y="276" type="curve"/>
      <point x="80" y="246"/>
      <point x="30" y="188"/>
      <point x="30" y="118" type="curve" smooth="yes"/>
      <point x="30" y="41"/>
      <point x="92" y="-11"/>
      <point x="183" y="-11" type="curve" smooth="yes"/>
    </contour>
    <contour>
      <point x="170" y="41"/>
      <point x="132" y="77"/>
      <point x="132" y="130" type="curve" smooth="yes"/>
      <point x="132" y="178"/>
      <point x="152" y="217"/>
      <point x="188" y="243" type="curve"/>
      <point x="220" y="200"/>
      <point x="263" y="149"/>
      <point x="322" y="84" type="curve"/>
      <point x="295" y="58"/>
      <point x="263" y="41"/>
      <point x="226" y="41" type="curve" smooth="yes"/>
    </contour>
  </outline>
</glyph>
<glyph name="parenleft" format="1">
  <advance width="321"/>
  <unicode hex="0028"/>
  <outline>
    <contour>
      <point x="309" y="-104"/>
      <point x="311" y="-90"/>
      <point x="311" y="-77" type="curve" smooth="yes"/>
      <point x="311" y="-61"/>
      <point x="309" y="-46"/>
      <point x="306" y="-30" type="curve"/>
      <point x="264" y="-36"/>
      <point x="229" y="-39"/>
      <point x="200" y="-39" type="curve"/>
      <point x="169" y="-29"/>
      <point x="154" y="118"/>
      <point x="154" y="264" type="curve" smooth="yes"/>
      <point x="154" y="411"/>
      <point x="169" y="557"/>
      <point x="200" y="567" type="curve"/>
      <point x="229" y="567"/>
      <point x="264" y="564"/>
      <point x="306" y="558" type="curve"/>
      <point x="309" y="574"/>
      <point x="311" y="589"/>
      <point x="311" y="605" type="curve" smooth="yes"/>
      <point x="311" y="618"/>
      <point x="309" y="632"/>
      <point x="306" y="647" type="curve"/>
      <point x="136" y="647"/>
      <point x="50" y="506"/>
      <point x="50" y="264" type="curve" smooth="yes"/>
      <point x="50" y="23"/>
      <point x="136" y="-119"/>
      <point x="306" y="-119" type="curve"/>
    </contour>
  </outline>
</glyph>
<glyph name="asterisk" format="1">
  <advance width="405"/>
  <unicode hex="002A"/>
  <outline>
    <contour>
      <point x="211" y="285"/>
      <point x="237" y="290"/>
      <point x="269" y="298" type="curve"/>
      <point x="270" y="340"/>
      <point x="254" y="385"/>
      <point x="222" y="428" type="curve"/>
      <point x="276" y="429"/>
      <point x="318" y="425"/>
      <point x="361" y="416" type="curve"/>
      <point x="361" y="450"/>
      <point x="355" y="479"/>
      <point x="348" y="509" type="curve"/>
      <point x="304" y="510"/>
      <point x="261" y="495"/>
      <point x="217" y="463" type="curve"/>
      <point x="217" y="514"/>
      <point x="219" y="556"/>
      <point x="230" y="601" type="curve"/>
      <point x="192" y="601"/>
      <point x="166" y="596"/>
      <point x="134" y="587" type="curve"/>
      <point x="133" y="543"/>
      <point x="149" y="500"/>
      <point x="182" y="458" type="curve"/>
      <point x="130" y="457"/>
      <point x="89" y="460"/>
      <point x="44" y="470" type="curve"/>
      <point x="44" y="433"/>
      <point x="49" y="407"/>
      <point x="58" y="375" type="curve"/>
      <point x="100" y="374"/>
      <point x="144" y="390"/>
      <point x="187" y="422" type="curve"/>
      <point x="188" y="368"/>
      <point x="184" y="328"/>
      <point x="175" y="285" type="curve"/>
    </contour>
  </outline>
</glyph>
<glyph name="period" format="1">
  <advance width="210"/>
  <unicode hex="002E"/>
  <outline>
    <contour>
      <point x="133" y="8"/>
      <point x="157" y="32"/>
      <point x="180" y="60" type="curve"/>
      <point x="152" y="83"/>
      <point x="128" y="107"/>
      <point x="105" y="135" type="curve"/>
      <point x="77" y="112"/>
      <point x="53" y="88"/>
      <point x="30" y="60" type="curve"/>
      <point x="58" y="37"/>
      <point x="82" y="13"/>
      <point x="105" y="-15" type="curve"/>
    </contour>
  </outline>
</glyph>
<glyph name="slash" format="1">
  <advance width="336"/>
  <unicode hex="002F"/>
  <outline>
    <contour>
      <point x="104" y="-87"/>
      <point x="118" y="-83"/>
      <point x="132" y="-78" type="curve"/>
      <point x="137" y="14"/>
      <point x="246" y="463"/>
      <point x="286" y="605" type="curve"/>
      <point x="271" y="610"/>
      <point x="258" y="614"/>
      <point x="246" y="614" type="curve" smooth="yes"/>
      <point x="232" y="614"/>
      <point x="218" y="610"/>
      <point x="204" y="605" type="curve"/>
      <point x="199" y="513"/>
      <point x="90" y="64"/>
      <point x="50" y="-78" type="curve"/>
      <point x="65" y="-83"/>
      <point x="78" y="-87"/>
      <point x="90" y="-87" type="curve" smooth="yes"/>
    </contour>
  </outline>
</glyph>
<glyph name="zero" format="1">
  <advance width="581"/>
  <unicode hex="0030"/>
  <outline>
    <contour>
      <point x="433" y="-11"/>
      <point x="546" y="108"/>
      <point x="546" y="278" type="curve" smooth="yes"/>
      <point x="546" y="431"/>
      <point x="454" y="533"/>
      <point x="317" y="533" type="curve" smooth="yes"/>
      <point x="151" y="533"/>
      <point x="35" y="416"/>
      <point x="35" y="250" type="curve" smooth="yes"/>
      <point x="35" y="93"/>
      <point x="130" y="-11"/>
      <point x="272" y="-11" type="curve" smooth="yes"/>
    </contour>
    <contour>
      <point x="196" y="68"/>
      <point x="135" y="150"/>
      <point x="135" y="274" type="curve" smooth="yes"/>
      <point x="135" y="392"/>
      <point x="206" y="478"/>
      <point x="304" y="478" type="curve"/>
      <point x="393" y="460"/>
      <point x="447" y="381"/>
      <point x="447" y="268" type="curve" smooth="yes"/>
      <point x="447" y="145"/>
      <point x="384" y="68"/>
      <point x="287" y="68" type="curve" smooth="yes"/>
    </contour>
  </outline>
</glyph>
<glyph name="three" format="1">
  <advance width="489"/>
  <unicode hex="0033"/>
  <outline>
    <contour>
      <point x="370" y="-11"/>
      <point x="449" y="46"/>
      <point x="449" y="153" type="curve" smooth="yes"/>
      <point x="449" y="239"/>
      <point x="380" y="301"/>
      <point x="281" y="305" type="curve"/>
      <point x="366" y="372" type="line" smooth="yes"/>
      <point x="418" y="413"/>
      <point x="436" y="440"/>
      <point x="436" y="478" type="curve" smooth="yes"/>
      <point x="436" y="507"/>
      <point x="422" y="533"/>
      <point x="398" y="546" type="curve"/>
      <point x="362" y="524"/>
      <point x="312" y="516"/>
      <point x="208" y="516" type="curve" smooth="yes"/>
      <point x="141" y="516"/>
      <point x="88" y="520"/>
      <point x="63" y="527" type="curve"/>
      <point x="63" y="494"/>
      <point x="71" y="450"/>
      <point x="83" y="419" type="curve"/>
      <point x="106" y="432"/>
      <point x="133" y="437"/>
      <point x="182" y="437" type="curve" smooth="yes"/>
      <point x="293" y="437"/>
      <point x="356" y="436"/>
      <point x="368" y="434" type="curve"/>
      <point x="179" y="285" type="line" smooth="yes"/>
      <point x="164" y="273"/>
      <point x="150" y="258"/>
      <point x="143" y="242" type="curve"/>
      <point x="143" y="234"/>
      <point x="164" y="220"/>
      <point x="177" y="220" type="curve"/>
      <point x="192" y="248"/>
      <point x="226" y="266"/>
      <point x="262" y="266" type="curve"/>
      <point x="316" y="247"/>
      <point x="347" y="206"/>
      <point x="347" y="153" type="curve" smooth="yes"/>
      <point x="347" y="86"/>
      <point x="298" y="47"/>
      <point x="215" y="47" type="curve" smooth="yes"/>
      <point x="150" y="47"/>
      <point x="90" y="70"/>
      <point x="57" y="108" type="curve"/>
      <point x="45" y="75"/>
      <point x="40" y="55"/>
      <point x="40" y="35" type="curve"/>
      <point x="90" y="5"/>
      <point x="153" y="-11"/>
      <point x="221" y="-11" type="curve" smooth="yes"/>
    </contour>
  </outline>
</glyph>
<glyph name="four" format="1">
  <advance width="484"/>
  <unicode hex="0034"/>
  <outline>
    <contour>
      <point x="361" y="-6"/>
      <point x="381" y="-4"/>
      <point x="400" y="0" type="curve"/>
      <point x="390" y="17"/>
      <point x="385" y="57"/>
      <point x="384" y="119" type="curve"/>
      <point x="434" y="113" type="line"/>
      <point x="446" y="141"/>
      <point x="454" y="181"/>
      <point x="454" y="211" type="curve"/>
      <point x="437" y="204"/>
      <point x="415" y="199"/>
      <point x="385" y="196" type="curve"/>
      <point x="386" y="252"/>
      <point x="390" y="309"/>
      <point x="395" y="342" type="curve"/>
      <point x="372" y="346"/>
      <point x="352" y="348"/>
      <point x="334" y="348" type="curve" smooth="yes"/>
      <point x="315" y="348"/>
      <point x="295" y="346"/>
      <point x="276" y="342" type="curve"/>
      <point x="286" y="324"/>
      <point x="292" y="275"/>
      <point x="292" y="193" type="curve"/>
      <point x="227" y="193"/>
      <point x="159" y="194"/>
      <point x="103" y="195" type="curve"/>
      <point x="207" y="363"/>
      <point x="303" y="470"/>
      <point x="355" y="515" type="curve"/>
      <point x="321" y="539"/>
      <point x="285" y="546"/>
      <point x="239" y="546" type="curve"/>
      <point x="193" y="475"/>
      <point x="72" y="273"/>
      <point x="49" y="233" type="curve" smooth="yes"/>
      <point x="29" y="197"/>
      <point x="20" y="175"/>
      <point x="20" y="144" type="curve" smooth="yes"/>
      <point x="20" y="128"/>
      <point x="27" y="113"/>
      <point x="42" y="104" type="curve"/>
      <point x="82" y="120"/>
      <point x="137" y="123"/>
      <point x="232" y="123" type="curve" smooth="yes"/>
      <point x="290" y="123" type="line"/>
      <point x="289" y="75"/>
      <point x="285" y="29"/>
      <point x="281" y="0" type="curve"/>
      <point x="304" y="-4"/>
      <point x="324" y="-6"/>
      <point x="342" y="-6" type="curve" smooth="yes"/>
    </contour>
  </outline>
</glyph>
<glyph name="five" format="1">
  <advance width="479"/>
  <unicode hex="0035"/>
  <outline>
    <contour>
      <point x="363" y="-11"/>
      <point x="440" y="48"/>
      <point x="440" y="158" type="curve" smooth="yes"/>
      <point x="440" y="256"/>
      <point x="369" y="325"/>
      <point x="266" y="325" type="curve" smooth="yes"/>
      <point x="215" y="325"/>
      <point x="169" y="311"/>
      <point x="127" y="284" type="curve"/>
      <point x="138" y="434" type="line"/>
      <point x="220" y="436"/>
      <point x="248" y="437"/>
      <point x="292" y="437" type="curve" smooth="yes"/>
      <point x="349" y="437"/>
      <point x="377" y="432"/>
      <point x="399" y="419" type="curve"/>
      <point x="411" y="450"/>
      <point x="419" y="494"/>
      <point x="419" y="527" type="curve"/>
      <point x="389" y="520"/>
      <point x="318" y="516"/>
      <point x="237" y="516" type="curve" smooth="yes"/>
      <point x="164" y="516"/>
      <point x="125" y="519"/>
      <point x="97" y="527" type="curve"/>
      <point x="77" y="241" type="line"/>
      <point x="77" y="237"/>
      <point x="100" y="229"/>
      <point x="123" y="225" type="curve"/>
      <point x="173" y="257"/>
      <point x="223" y="276"/>
      <point x="256" y="276" type="curve"/>
      <point x="310" y="251"/>
      <point x="338" y="211"/>
      <point x="338" y="158" type="curve" smooth="yes"/>
      <point x="338" y="87"/>
      <point x="290" y="47"/>
      <point x="210" y="47" type="curve" smooth="yes"/>
      <point x="147" y="47"/>
      <point x="89" y="70"/>
      <point x="57" y="108" type="curve"/>
      <point x="45" y="83"/>
      <point x="40" y="63"/>
      <point x="40" y="35" type="curve"/>
      <point x="89" y="5"/>
      <point x="151" y="-11"/>
      <point x="217" y="-11" type="curve" smooth="yes"/>
    </contour>
  </outline>
</glyph>
<glyph name="seven" format="1">
  <advance width="454"/>
  <unicode hex="0037"/>
  <outline>
    <contour>
      <point x="231" y="91"/>
      <point x="366" y="353"/>
      <point x="395" y="407" type="curve" smooth="yes"/>
      <point x="414" y="443"/>
      <point x="424" y="465"/>
      <point x="424" y="496" type="curve" smooth="yes"/>
      <point x="424" y="516"/>
      <point x="414" y="535"/>
      <point x="392" y="546" type="curve"/>
      <point x="354" y="522"/>
      <point x="302" y="516"/>
      <point x="222" y="516" type="curve" smooth="yes"/>
      <point x="142" y="516"/>
      <point x="66" y="520"/>
      <point x="30" y="527" type="curve"/>
      <point x="30" y="494"/>
      <point x="38" y="450"/>
      <point x="50" y="419" type="curve"/>
      <point x="71" y="431"/>
      <point x="98" y="437"/>
      <point x="147" y="437" type="curve" smooth="yes"/>
      <point x="212" y="437"/>
      <point x="280" y="436"/>
      <point x="339" y="435" type="curve"/>
      <point x="228" y="220"/>
      <point x="121" y="84"/>
      <point x="69" y="25" type="curve"/>
      <point x="103" y="1"/>
      <point x="139" y="-6"/>
      <point x="185" y="-6" type="curve"/>
    </contour>
  </outline>
</glyph>
<glyph name="eight" format="1">
  <advance width="518"/>
  <unicode hex="0038"/>
  <outline>
    <contour>
      <point x="378" y="-11"/>
      <point x="478" y="50"/>
      <point x="478" y="144" type="curve" smooth="yes"/>
      <point x="478" y="221"/>
      <point x="424" y="257"/>
      <point x="359" y="281" type="curve"/>
      <point x="423" y="309"/>
      <point x="461" y="352"/>
      <point x="461" y="402" type="curve" smooth="yes"/>
      <point x="461" y="481"/>
      <point x="388" y="533"/>
      <point x="280" y="533" type="curve" smooth="yes"/>
      <point x="149" y="533"/>
      <point x="57" y="473"/>
      <point x="57" y="388" type="curve" smooth="yes"/>
      <point x="57" y="316"/>
      <point x="101" y="278"/>
      <point x="157" y="252" type="curve"/>
      <point x="84" y="222"/>
      <point x="40" y="174"/>
      <point x="40" y="118" type="curve" smooth="yes"/>
      <point x="40" y="41"/>
      <point x="122" y="-11"/>
      <point x="243" y="-11" type="curve" smooth="yes"/>
    </contour>
    <contour>
      <point x="188" y="41"/>
      <point x="142" y="77"/>
      <point x="142" y="130" type="curve" smooth="yes"/>
      <point x="142" y="172"/>
      <point x="167" y="207"/>
      <point x="212" y="230" type="curve"/>
      <point x="293" y="203"/>
      <point x="376" y="186"/>
      <point x="376" y="126" type="curve" smooth="yes"/>
      <point x="376" y="74"/>
      <point x="330" y="41"/>
      <point x="256" y="41" type="curve" smooth="yes"/>
    </contour>
    <contour>
      <point x="225" y="325"/>
      <point x="153" y="345"/>
      <point x="153" y="407" type="curve" smooth="yes"/>
      <point x="153" y="457"/>
      <point x="202" y="487"/>
      <point x="269" y="487" type="curve"/>
      <point x="329" y="477"/>
      <point x="365" y="443"/>
      <point x="365" y="395" type="curve" smooth="yes"/>
      <point x="365" y="355"/>
      <point x="342" y="323"/>
      <point x="301" y="301" type="curve"/>
    </contour>
  </outline>
</glyph>
<glyph name="B" format="1">
  <advance width="522"/>
  <unicode hex="0042"/>
  <outline>
    <contour>
      <point x="404" y="-12"/>
      <point x="483" y="44"/>
      <point x="483" y="144" type="curve" smooth="yes"/>
      <point x="483" y="204"/>
      <point x="442" y="252"/>
      <point x="375" y="276" type="curve"/>
      <point x="426" y="301"/>
      <point x="458" y="342"/>
      <point x="458" y="391" type="curve" smooth="yes"/>
      <point x="458" y="482"/>
      <point x="387" y="532"/>
      <point x="259" y="532" type="curve" smooth="yes"/>
      <point x="187" y="532"/>
      <point x="108" y="521"/>
      <point x="60" y="505" type="curve"/>
      <point x="71" y="480"/>
      <point x="76" y="419"/>
      <point x="76" y="310" type="curve" smooth="yes"/>
      <point x="76" y="202"/>
      <point x="72" y="73"/>
      <point x="67" y="15" type="curve"/>
      <point x="114" y="-1"/>
      <point x="192" y="-12"/>
      <point x="263" y="-12" type="curve" smooth="yes"/>
    </contour>
    <contour>
      <point x="225" y="36"/>
      <point x="198" y="40"/>
      <point x="174" y="49" type="curve"/>
      <point x="170" y="88"/>
      <point x="168" y="145"/>
      <point x="168" y="223" type="curve"/>
      <point x="219" y="239"/>
      <point x="271" y="250"/>
      <point x="300" y="250" type="curve"/>
      <point x="352" y="230"/>
      <point x="381" y="192"/>
      <point x="381" y="144" type="curve" smooth="yes"/>
      <point x="381" y="72"/>
      <point x="338" y="36"/>
      <point x="252" y="36" type="curve" smooth="yes"/>
    </contour>
    <contour>
      <point x="170" y="341"/>
      <point x="172" y="403"/>
      <point x="175" y="454" type="curve"/>
      <point x="198" y="461"/>
      <point x="222" y="464"/>
      <point x="248" y="464" type="curve" smooth="yes"/>
      <point x="320" y="464"/>
      <point x="356" y="436"/>
      <point x="356" y="380" type="curve" smooth="yes"/>
      <point x="356" y="347"/>
      <point x="335" y="317"/>
      <point x="298" y="292" type="curve"/>
      <point x="257" y="296"/>
      <point x="206" y="293"/>
      <point x="169" y="284" type="curve"/>
    </contour>
  </outline>
</glyph>
<glyph name="D" format="1">
  <advance width="575"/>
  <unicode hex="0044"/>
  <outline>
    <contour>
      <point x="414" y="-6"/>
      <point x="535" y="105"/>
      <point x="535" y="266" type="curve" smooth="yes"/>
      <point x="535" y="437"/>
      <point x="436" y="532"/>
      <point x="258" y="532" type="curve" smooth="yes"/>
      <point x="183" y="532"/>
      <point x="103" y="521"/>
      <point x="60" y="505" type="curve"/>
      <point x="71" y="478"/>
      <point x="76" y="408"/>
      <point x="76" y="300" type="curve" smooth="yes"/>
      <point x="76" y="199"/>
      <point x="71" y="73"/>
      <point x="65" y="10" type="curve"/>
      <point x="112" y="0"/>
      <point x="180" y="-6"/>
      <point x="238" y="-6" type="curve" smooth="yes"/>
    </contour>
    <contour>
      <point x="259" y="48"/>
      <point x="217" y="56"/>
      <point x="173" y="68" type="curve"/>
      <point x="170" y="107"/>
      <point x="168" y="160"/>
      <point x="168" y="227" type="curve" smooth="yes"/>
      <point x="168" y="302"/>
      <point x="171" y="391"/>
      <point x="175" y="455" type="curve"/>
      <point x="195" y="461"/>
      <point x="216" y="464"/>
      <point x="237" y="464" type="curve" smooth="yes"/>
      <point x="361" y="464"/>
      <point x="433" y="400"/>
      <point x="433" y="248" type="curve" smooth="yes"/>
      <point x="433" y="155"/>
      <point x="367" y="61"/>
      <point x="285" y="48" type="curve"/>
    </contour>
    <contour>
      <point x="178" y="264" type="move" name="center"/>
    </contour>
    <contour>
      <point x="288" y="0" type="move" name="bottom"/>
    </contour>
    <contour>
      <point x="288" y="527" type="move" name="top"/>
    </contour>
  </outline>
</glyph>
<glyph name="E" format="1">
  <advance width="475"/>
  <unicode hex="0045"/>
  <outline>
    <contour>
      <point x="104" y="2"/>
      <point x="149" y="4"/>
      <point x="228" y="4" type="curve" smooth="yes"/>
      <point x="297" y="4"/>
      <point x="367" y="2"/>
      <point x="414" y="-3" type="curve"/>
      <point x="427" y="14"/>
      <point x="435" y="68"/>
      <point x="435" y="103" type="curve"/>
      <point x="396" y="86"/>
      <point x="331" y="76"/>
      <point x="273" y="76" type="curve" smooth="yes"/>
      <point x="238" y="76"/>
      <point x="200" y="80"/>
      <point x="172" y="85" type="curve"/>
      <point x="169" y="118"/>
      <point x="168" y="163"/>
      <point x="168" y="232" type="curve"/>
      <point x="225" y="235"/>
      <point x="314" y="230"/>
      <point x="379" y="226" type="curve"/>
      <point x="381" y="239"/>
      <point x="383" y="254"/>
      <point x="383" y="266" type="curve" smooth="yes"/>
      <point x="383" y="279"/>
      <point x="381" y="294"/>
      <point x="379" y="305" type="curve"/>
      <point x="342" y="298"/>
      <point x="317" y="294"/>
      <point x="247" y="294" type="curve" smooth="yes"/>
      <point x="222" y="294"/>
      <point x="194" y="295"/>
      <point x="169" y="296" type="curve"/>
      <point x="170" y="346"/>
      <point x="172" y="397"/>
      <point x="174" y="440" type="curve"/>
      <point x="201" y="445"/>
      <point x="236" y="448"/>
      <point x="268" y="448" type="curve" smooth="yes"/>
      <point x="319" y="448"/>
      <point x="376" y="439"/>
      <point x="410" y="421" type="curve"/>
      <point x="423" y="438"/>
      <point x="431" y="492"/>
      <point x="431" y="527" type="curve"/>
      <point x="378" y="522"/>
      <point x="300" y="520"/>
      <point x="223" y="520" type="curve" smooth="yes"/>
      <point x="160" y="520"/>
      <point x="98" y="522"/>
      <point x="60" y="527" type="curve"/>
      <point x="72" y="482"/>
      <point x="76" y="418"/>
      <point x="76" y="300" type="curve" smooth="yes"/>
      <point x="76" y="177"/>
      <point x="74" y="121"/>
      <point x="65" y="-3" type="curve"/>
    </contour>
    <contour>
      <point x="414" y="17" type="move" name="ogonek"/>
    </contour>
    <contour>
      <point x="248" y="527" type="move" name="top"/>
    </contour>
    <contour>
      <point x="20" y="527" type="move" name="topleft"/>
    </contour>
    <contour>
      <point x="238" y="0" type="move" name="bottom"/>
    </contour>
  </outline>
</glyph>
<glyph name="F" format="1">
  <advance width="431"/>
  <unicode hex="0046"/>
  <outline>
    <contour>
      <point x="145" y="-6"/>
      <point x="165" y="-4"/>
      <point x="184" y="0" type="curve"/>
      <point x="173" y="29"/>
      <point x="168" y="106"/>
      <point x="168" y="232" type="curve"/>
      <point x="221" y="235"/>
      <point x="300" y="230"/>
      <point x="359" y="226" type="curve"/>
      <point x="361" y="239"/>
      <point x="363" y="254"/>
      <point x="363" y="266" type="curve" smooth="yes"/>
      <point x="363" y="279"/>
      <point x="361" y="293"/>
      <point x="359" y="305" type="curve"/>
      <point x="325" y="298"/>
      <point x="301" y="294"/>
      <point x="237" y="294" type="curve" smooth="yes"/>
      <point x="216" y="294"/>
      <point x="191" y="295"/>
      <point x="169" y="296" type="curve"/>
      <point x="170" y="346"/>
      <point x="172" y="397"/>
      <point x="174" y="440" type="curve"/>
      <point x="201" y="445"/>
      <point x="236" y="448"/>
      <point x="268" y="448" type="curve" smooth="yes"/>
      <point x="312" y="448"/>
      <point x="360" y="439"/>
      <point x="390" y="421" type="curve"/>
      <point x="403" y="438"/>
      <point x="411" y="492"/>
      <point x="411" y="527" type="curve"/>
      <point x="363" y="522"/>
      <point x="292" y="520"/>
      <point x="223" y="520" type="curve" smooth="yes"/>
      <point x="160" y="520"/>
      <point x="98" y="522"/>
      <point x="60" y="527" type="curve"/>
      <point x="72" y="477"/>
      <point x="76" y="403"/>
      <point x="76" y="270" type="curve" smooth="yes"/>
      <point x="76" y="176"/>
      <point x="71" y="59"/>
      <point x="65" y="0" type="curve"/>
      <point x="88" y="-4"/>
      <point x="108" y="-6"/>
      <point x="126" y="-6" type="curve" smooth="yes"/>
    </contour>
  </outline>
</glyph>
<glyph name="I" format="1">
  <advance width="244"/>
  <unicode hex="0049"/>
  <outline>
    <contour>
      <point x="145" y="-6"/>
      <point x="165" y="-4"/>
      <point x="184" y="0" type="curve"/>
      <point x="173" y="30"/>
      <point x="168" y="107"/>
      <point x="168" y="227" type="curve" smooth="yes"/>
      <point x="168" y="331"/>
      <point x="173" y="461"/>
      <point x="179" y="527" type="curve"/>
      <point x="156" y="531"/>
      <point x="136" y="533"/>
      <point x="118" y="533" type="curve" smooth="yes"/>
      <point x="99" y="533"/>
      <point x="79" y="531"/>
      <point x="60" y="527" type="curve"/>
      <point x="71" y="497"/>
      <point x="76" y="420"/>
      <point x="76" y="300" type="curve" smooth="yes"/>
      <point x="76" y="196"/>
      <point x="71" y="66"/>
      <point x="65" y="0" type="curve"/>
      <point x="88" y="-4"/>
      <point x="108" y="-6"/>
      <point x="126" y="-6" type="curve" smooth="yes"/>
    </contour>
    <contour>
      <point x="184" y="0" type="move" name="ogonek"/>
    </contour>
    <contour>
      <point x="122" y="527" type="move" name="top"/>
    </contour>
    <contour>
      <point x="20" y="527" type="move" name="topleft"/>
    </contour>
    <contour>
      <point x="122" y="0" type="move" name="bottom"/>
    </contour>
  </outline>
</glyph>
<glyph name="K" format="1">
  <advance width="505"/>
  <unicode hex="004B"/>
  <outline>
    <contour>
      <point x="145" y="-6"/>
      <point x="165" y="-4"/>
      <point x="184" y="0" type="curve"/>
      <point x="174" y="27"/>
      <point x="169" y="91"/>
      <point x="168" y="191" type="curve"/>
      <point x="182" y="206"/>
      <point x="196" y="223"/>
      <point x="211" y="240" type="curve"/>
      <point x="291" y="127"/>
      <point x="352" y="36"/>
      <point x="377" y="-6" type="curve"/>
      <point x="427" y="-6"/>
      <point x="466" y="-1"/>
      <point x="505" y="15" type="curve"/>
      <point x="446" y="58"/>
      <point x="359" y="183"/>
      <point x="277" y="314" type="curve"/>
      <point x="346" y="391"/>
      <point x="420" y="472"/>
      <point x="484" y="533" type="curve"/>
      <point x="442" y="533"/>
      <point x="405" y="531"/>
      <point x="356" y="522" type="curve"/>
      <point x="356" y="492"/>
      <point x="330" y="444"/>
      <point x="168" y="271" type="curve"/>
      <point x="169" y="365"/>
      <point x="174" y="470"/>
      <point x="179" y="527" type="curve"/>
      <point x="156" y="531"/>
      <point x="136" y="533"/>
      <point x="118" y="533" type="curve" smooth="yes"/>
      <point x="99" y="533"/>
      <point x="79" y="531"/>
      <point x="60" y="527" type="curve"/>
      <point x="71" y="497"/>
      <point x="76" y="420"/>
      <point x="76" y="300" type="curve" smooth="yes"/>
      <point x="76" y="196"/>
      <point x="71" y="66"/>
      <point x="65" y="0" type="curve"/>
      <point x="88" y="-4"/>
      <point x="108" y="-6"/>
      <point x="126" y="-6" type="curve" smooth="yes"/>
    </contour>
    <contour>
      <point x="253" y="527" type="move" name="top"/>
    </contour>
    <contour>
      <point x="253" y="0" type="move" name="bottom"/>
    </contour>
  </outline>
</glyph>
<glyph name="T" format="1">
  <advance width="446"/>
  <unicode hex="0054"/>
  <outline>
    <contour>
      <point x="246" y="-6"/>
      <point x="266" y="-4"/>
      <point x="285" y="0" type="curve"/>
      <point x="274" y="30"/>
      <point x="269" y="106"/>
      <point x="269" y="227" type="curve" smooth="yes"/>
      <point x="269" y="297"/>
      <point x="272" y="380"/>
      <point x="275" y="444" type="curve"/>
      <point x="336" y="442"/>
      <point x="395" y="439"/>
      <point x="431" y="436" type="curve"/>
      <point x="434" y="454"/>
      <point x="436" y="470"/>
      <point x="436" y="484" type="curve" smooth="yes"/>
      <point x="436" y="499"/>
      <point x="434" y="515"/>
      <point x="431" y="530" type="curve"/>
      <point x="407" y="521"/>
      <point x="347" y="517"/>
      <point x="252" y="517" type="curve" smooth="yes"/>
      <point x="169" y="517"/>
      <point x="67" y="521"/>
      <point x="15" y="526" type="curve"/>
      <point x="12" y="508"/>
      <point x="10" y="492"/>
      <point x="10" y="478" type="curve" smooth="yes"/>
      <point x="10" y="463"/>
      <point x="12" y="447"/>
      <point x="15" y="432" type="curve"/>
      <point x="37" y="439"/>
      <point x="89" y="444"/>
      <point x="172" y="445" type="curve"/>
      <point x="175" y="409"/>
      <point x="177" y="361"/>
      <point x="177" y="300" type="curve" smooth="yes"/>
      <point x="177" y="196"/>
      <point x="172" y="66"/>
      <point x="166" y="0" type="curve"/>
      <point x="189" y="-4"/>
      <point x="209" y="-6"/>
      <point x="227" y="-6" type="curve" smooth="yes"/>
    </contour>
    <contour>
      <point x="223" y="264" type="move" name="center"/>
    </contour>
    <contour>
      <point x="223" y="0" type="move" name="bottom"/>
    </contour>
    <contour>
      <point x="223" y="527" type="move" name="top"/>
    </contour>
  </outline>
</glyph>
<glyph name="W" format="1">
  <advance width="788"/>
  <unicode hex="0057"/>
  <outline>
    <contour>
      <point x="288" y="27" type="line"/>
      <point x="315" y="113"/>
      <point x="355" y="237"/>
      <point x="393" y="348" type="curve"/>
      <point x="452" y="162"/>
      <point x="476" y="-9"/>
      <point x="562" y="-9" type="curve"/>
      <point x="612" y="27" type="line"/>
      <point x="655" y="168"/>
      <point x="735" y="409"/>
      <point x="783" y="533" type="curve"/>
      <point x="747" y="533"/>
      <point x="720" y="530"/>
      <point x="690" y="522" type="curve"/>
      <point x="700" y="488"/>
      <point x="663" y="361"/>
      <point x="576" y="97" type="curve"/>
      <point x="561" y="131"/>
      <point x="542" y="183"/>
      <point x="518" y="260" type="curve"/>
      <point x="494" y="350"/>
      <point x="467" y="471"/>
      <point x="459" y="533" type="curve"/>
      <point x="418" y="533"/>
      <point x="371" y="527"/>
      <point x="329" y="512" type="curve"/>
      <point x="358" y="446" type="line"/>
      <point x="342" y="377"/>
      <point x="308" y="265"/>
      <point x="252" y="97" type="curve"/>
      <point x="237" y="131"/>
      <point x="218" y="183"/>
      <point x="194" y="260" type="curve" smooth="yes"/>
      <point x="169" y="350"/>
      <point x="142" y="471"/>
      <point x="135" y="533" type="curve"/>
      <point x="84" y="533"/>
      <point x="45" y="526"/>
      <point x="5" y="512" type="curve"/>
      <point x="119" y="277"/>
      <point x="127" y="-9"/>
      <point x="238" y="-9" type="curve"/>
    </contour>
    <contour>
      <point x="394" y="527" type="move" name="top"/>
    </contour>
    <contour>
      <point x="394" y="0" type="move" name="bottom"/>
    </contour>
  </outline>
</glyph>
<glyph name="X" format="1">
  <advance width="513"/>
  <unicode hex="0058"/>
  <outline>
    <contour>
      <point x="37" y="-6"/>
      <point x="69" y="-5"/>
      <point x="110" y="0" type="curve"/>
      <point x="116" y="26"/>
      <point x="155" y="92"/>
      <point x="245" y="205" type="curve"/>
      <point x="313" y="105"/>
      <point x="370" y="14"/>
      <point x="379" y="-6" type="curve"/>
      <point x="429" y="-6"/>
      <point x="468" y="-1"/>
      <point x="507" y="15" type="curve"/>
      <point x="482" y="34"/>
      <point x="392" y="160"/>
      <point x="308" y="283" type="curve"/>
      <point x="366" y="359"/>
      <point x="448" y="463"/>
      <point x="513" y="533" type="curve"/>
      <point x="476" y="533"/>
      <point x="444" y="532"/>
      <point x="403" y="527" type="curve"/>
      <point x="397" y="501"/>
      <point x="361" y="439"/>
      <point x="276" y="332" type="curve"/>
      <point x="211" y="428"/>
      <point x="157" y="514"/>
      <point x="149" y="533" type="curve"/>
      <point x="99" y="533"/>
      <point x="59" y="528"/>
      <point x="21" y="512" type="curve"/>
      <point x="46" y="493"/>
      <point x="131" y="374"/>
      <point x="212" y="254" type="curve"/>
      <point x="154" y="177"/>
      <point x="68" y="67"/>
      <point x="0" y="-6" type="curve"/>
    </contour>
  </outline>
</glyph>
<glyph name="Z" format="1">
  <advance width="445"/>
  <unicode hex="005A"/>
  <outline>
    <contour>
      <point x="413" y="16"/>
      <point x="421" y="70"/>
      <point x="421" y="103" type="curve"/>
      <point x="380" y="86"/>
      <point x="312" y="77"/>
      <point x="253" y="77" type="curve" smooth="yes"/>
      <point x="212" y="77"/>
      <point x="165" y="81"/>
      <point x="136" y="85" type="curve"/>
      <point x="212" y="190"/>
      <point x="378" y="405"/>
      <point x="409" y="450" type="curve" smooth="yes"/>
      <point x="419" y="464"/>
      <point x="425" y="480"/>
      <point x="425" y="496" type="curve" smooth="yes"/>
      <point x="425" y="516"/>
      <point x="415" y="535"/>
      <point x="393" y="546" type="curve"/>
      <point x="355" y="522"/>
      <point x="303" y="516"/>
      <point x="223" y="516" type="curve" smooth="yes"/>
      <point x="143" y="516"/>
      <point x="67" y="520"/>
      <point x="31" y="527" type="curve"/>
      <point x="31" y="494"/>
      <point x="39" y="450"/>
      <point x="51" y="419" type="curve"/>
      <point x="72" y="431"/>
      <point x="99" y="437"/>
      <point x="148" y="437" type="curve" smooth="yes"/>
      <point x="212" y="437"/>
      <point x="281" y="434"/>
      <point x="332" y="434" type="curve"/>
      <point x="200" y="250"/>
      <point x="78" y="95"/>
      <point x="20" y="38" type="curve"/>
      <point x="20" y="0" type="line"/>
      <point x="87" y="4"/>
      <point x="350" y="4"/>
      <point x="401" y="-5" type="curve"/>
    </contour>
    <contour>
      <point x="223" y="527" type="move" name="top"/>
    </contour>
    <contour>
      <point x="223" y="0" type="move" name="bottom"/>
    </contour>
  </outline>
</glyph>
<glyph name="bracketleft" format="1">
  <advance width="353"/>
  <unicode hex="005B"/>
  <outline>
    <contour>
      <point x="321" y="-109"/>
      <point x="323" y="-93"/>
      <point x="323" y="-78" type="curve" smooth="yes"/>
      <point x="323" y="-64"/>
      <point x="321" y="-48"/>
      <point x="318" y="-30" type="curve"/>
      <point x="286" y="-33"/>
      <point x="234" y="-36"/>
      <point x="180" y="-37" type="curve"/>
      <point x="171" y="27"/>
      <point x="168" y="122"/>
      <point x="168" y="292" type="curve" smooth="yes"/>
      <point x="168" y="357"/>
      <point x="171" y="481"/>
      <point x="175" y="565" type="curve"/>
      <point x="228" y="564"/>
      <point x="278" y="561"/>
      <point x="310" y="558" type="curve"/>
      <point x="313" y="576"/>
      <point x="315" y="592"/>
      <point x="315" y="606" type="curve" smooth="yes"/>
      <point x="315" y="621"/>
      <point x="313" y="637"/>
      <point x="310" y="652" type="curve"/>
      <point x="289" y="645"/>
      <point x="235" y="639"/>
      <point x="151" y="639" type="curve" smooth="yes"/>
      <point x="120" y="639"/>
      <point x="88" y="640"/>
      <point x="60" y="643" type="curve"/>
      <point x="71" y="583"/>
      <point x="76" y="498"/>
      <point x="76" y="292" type="curve" smooth="yes"/>
      <point x="76" y="191"/>
      <point x="71" y="-30"/>
      <point x="65" y="-117" type="curve"/>
      <point x="101" y="-113"/>
      <point x="131" y="-111"/>
      <point x="159" y="-111" type="curve" smooth="yes"/>
      <point x="243" y="-111"/>
      <point x="297" y="-117"/>
      <point x="318" y="-124" type="curve"/>
    </contour>
  </outline>
</glyph>
<glyph name="asciicircum" format="1">
  <advance width="368"/>
  <unicode hex="005E"/>
  <outline>
    <contour>
      <point x="184" y="504" type="line"/>
      <point x="299" y="359" type="line"/>
      <point x="321" y="374"/>
      <point x="338" y="390"/>
      <point x="358" y="416" type="curve"/>
      <point x="301" y="473"/>
      <point x="255" y="521"/>
      <point x="196" y="596" type="curve"/>
      <point x="172" y="596" type="line"/>
      <point x="113" y="521"/>
      <point x="67" y="473"/>
      <point x="10" y="416" type="curve"/>
      <point x="30" y="390"/>
      <point x="47" y="374"/>
      <point x="69" y="359" type="curve"/>
    </contour>
  </outline>
</glyph>
<glyph name="underscore" format="1">
  <advance width="509"/>
  <unicode hex="005F"/>
  <outline>
    <contour>
      <point x="100" y="-91"/>
      <point x="184" y="-82"/>
      <point x="262" y="-82" type="curve" smooth="yes"/>
      <point x="322" y="-82"/>
      <point x="385" y="-83"/>
      <point x="454" y="-87" type="curve"/>
      <point x="454" y="-50"/>
      <point x="451" y="-18"/>
      <point x="441" y="19" type="curve"/>
      <point x="407" y="9"/>
      <point x="324" y="0"/>
      <point x="247" y="0" type="curve" smooth="yes"/>
      <point x="185" y="0"/>
      <point x="124" y="1"/>
      <point x="55" y="5" type="curve"/>
      <point x="55" y="-32"/>
      <point x="58" y="-64"/>
      <point x="68" y="-101" type="curve"/>
    </contour>
  </outline>
</glyph>
<glyph name="a" format="1">
  <advance width="437"/>
  <unicode hex="0061"/>
  <outline>
    <contour>
      <point x="171" y="-11"/>
      <point x="226" y="10"/>
      <point x="273" y="43" type="curve"/>
      <point x="280" y="20"/>
      <point x="292" y="2"/>
      <point x="311" y="-11" type="curve"/>
      <point x="342" y="-7"/>
      <point x="373" y="7"/>
      <point x="397" y="27" type="curve"/>
      <point x="366" y="60"/>
      <point x="358" y="82"/>
      <point x="358" y="132" type="curve" smooth="yes"/>
      <point x="358" y="179"/>
      <point x="367" y="231"/>
      <point x="367" y="284" type="curve" smooth="yes"/>
      <point x="367" y="370"/>
      <point x="318" y="418"/>
      <point x="229" y="418" type="curve" smooth="yes"/>
      <point x="164" y="418"/>
      <point x="96" y="378"/>
      <point x="59" y="319" type="curve"/>
      <point x="67" y="293" type="line"/>
      <point x="101" y="316"/>
      <point x="146" y="330"/>
      <point x="188" y="330" type="curve" smooth="yes"/>
      <point x="254" y="330"/>
      <point x="275" y="300"/>
      <point x="275" y="220" type="curve"/>
      <point x="117" y="210"/>
      <point x="40" y="165"/>
      <point x="40" y="83" type="curve" smooth="yes"/>
      <point x="40" y="28"/>
      <point x="77" y="-11"/>
      <point x="127" y="-11" type="curve" smooth="yes"/>
    </contour>
    <contour>
      <point x="151" y="52"/>
      <point x="138" y="76"/>
      <point x="138" y="98" type="curve" smooth="yes"/>
      <point x="138" y="150"/>
      <point x="187" y="183"/>
      <point x="274" y="188" type="curve"/>
      <point x="272" y="148"/>
      <point x="268" y="123"/>
      <point x="268" y="87" type="curve" smooth="yes"/>
      <point x="268" y="81" type="line"/>
      <point x="240" y="60"/>
      <point x="202" y="43"/>
      <point x="170" y="40" type="curve"/>
    </contour>
    <contour>
      <point x="354" y="1" type="move" name="ogonek"/>
    </contour>
    <contour>
      <point x="218" y="0" type="move" name="bottom"/>
    </contour>
    <contour>
      <point x="218" y="407" type="move" name="top"/>
    </contour>
  </outline>
</glyph>
<glyph name="b" format="1">
  <advance width="482"/>
  <unicode hex="0062"/>
  <outline>
    <contour>
      <point x="372" y="-9"/>
      <point x="442" y="70"/>
      <point x="442" y="212" type="curve" smooth="yes"/>
      <point x="442" y="334"/>
      <point x="381" y="410"/>
      <point x="282" y="410" type="curve" smooth="yes"/>
      <point x="238" y="410"/>
      <point x="194" y="393"/>
      <point x="157" y="364" type="curve"/>
      <point x="159" y="437"/>
      <point x="163" y="510"/>
      <point x="167" y="547" type="curve"/>
      <point x="120" y="547"/>
      <point x="86" y="541"/>
      <point x="50" y="527" type="curve"/>
      <point x="62" y="488"/>
      <point x="67" y="427"/>
      <point x="67" y="333" type="curve" smooth="yes"/>
      <point x="67" y="248"/>
      <point x="64" y="74"/>
      <point x="58" y="5" type="curve"/>
      <point x="72" y="2"/>
      <point x="83" y="0"/>
      <point x="94" y="0" type="curve"/>
      <point x="119" y="41" type="line"/>
      <point x="147" y="11"/>
      <point x="192" y="-9"/>
      <point x="245" y="-9" type="curve" smooth="yes"/>
    </contour>
    <contour>
      <point x="207" y="44"/>
      <point x="182" y="55"/>
      <point x="161" y="76" type="curve"/>
      <point x="156" y="101"/>
      <point x="154" y="134"/>
      <point x="154" y="192" type="curve" smooth="yes"/>
      <point x="154" y="222"/>
      <point x="155" y="266"/>
      <point x="156" y="314" type="curve"/>
      <point x="187" y="330"/>
      <point x="223" y="339"/>
      <point x="255" y="339" type="curve"/>
      <point x="311" y="318"/>
      <point x="345" y="267"/>
      <point x="345" y="177" type="curve" smooth="yes"/>
      <point x="345" y="90"/>
      <point x="307" y="44"/>
      <point x="234" y="44" type="curve" smooth="yes"/>
    </contour>
    <contour>
      <point x="241" y="407" type="move" name="top"/>
    </contour>
    <contour>
      <point x="241" y="0" type="move" name="bottom"/>
    </contour>
  </outline>
</glyph>
<glyph name="g" format="1">
  <advance width="444"/>
  <unicode hex="0067"/>
  <outline>
    <contour>
      <point x="323" y="-180"/>
      <point x="413" y="-119"/>
      <point x="413" y="-38" type="curve" smooth="yes"/>
      <point x="413" y="21"/>
      <point x="373" y="55"/>
      <point x="299" y="61" type="curve" smooth="yes"/>
      <point x="111" y="71" type="line"/>
      <point x="111" y="100"/>
      <point x="147" y="119"/>
      <point x="204" y="119" type="curve" smooth="yes"/>
      <point x="311" y="119"/>
      <point x="387" y="184"/>
      <point x="387" y="277" type="curve" smooth="yes"/>
      <point x="387" y="305"/>
      <point x="380" y="330"/>
      <point x="368" y="351" type="curve"/>
      <point x="397" y="353"/>
      <point x="424" y="360"/>
      <point x="444" y="371" type="curve"/>
      <point x="444" y="391"/>
      <point x="432" y="429"/>
      <point x="418" y="454" type="curve"/>
      <point x="385" y="425"/>
      <point x="349" y="403"/>
      <point x="322" y="396" type="curve"/>
      <point x="297" y="410"/>
      <point x="267" y="418"/>
      <point x="232" y="418" type="curve" smooth="yes"/>
      <point x="127" y="418"/>
      <point x="54" y="353"/>
      <point x="54" y="260" type="curve" smooth="yes"/>
      <point x="54" y="204"/>
      <point x="80" y="160"/>
      <point x="125" y="137" type="curve"/>
      <point x="78" y="119"/>
      <point x="49" y="87"/>
      <point x="49" y="49" type="curve" smooth="yes"/>
      <point x="49" y="23"/>
      <point x="63" y="3"/>
      <point x="87" y="-6" type="curve"/>
      <point x="54" y="-42"/>
      <point x="35" y="-90"/>
      <point x="35" y="-137" type="curve"/>
      <point x="74" y="-164"/>
      <point x="131" y="-180"/>
      <point x="202" y="-180" type="curve" smooth="yes"/>
    </contour>
    <contour>
      <point x="176" y="-113"/>
      <point x="137" y="-96"/>
      <point x="112" y="-63" type="curve"/>
      <point x="116" y="-46"/>
      <point x="123" y="-28"/>
      <point x="131" y="-12" type="curve"/>
      <point x="279" y="-20" type="line" smooth="yes"/>
      <point x="325" y="-22"/>
      <point x="342" y="-32"/>
      <point x="342" y="-58" type="curve" smooth="yes"/>
      <point x="342" y="-91"/>
      <point x="296" y="-113"/>
      <point x="227" y="-113" type="curve" smooth="yes"/>
    </contour>
    <contour>
      <point x="170" y="164"/>
      <point x="137" y="197"/>
      <point x="137" y="248" type="curve" smooth="yes"/>
      <point x="137" y="301"/>
      <point x="175" y="339"/>
      <point x="227" y="339" type="curve"/>
      <point x="275" y="327"/>
      <point x="304" y="292"/>
      <point x="304" y="246" type="curve" smooth="yes"/>
      <point x="304" y="194"/>
      <point x="272" y="164"/>
      <point x="219" y="164" type="curve" smooth="yes"/>
    </contour>
    <contour>
      <point x="231" y="407" type="move" name="top"/>
    </contour>
    <contour>
      <point x="226" y="0" type="move" name="bottom"/>
    </contour>
  </outline>
</glyph>
<glyph name="h" format="1">
  <advance width="492"/>
  <unicode hex="0068"/>
  <outline>
    <contour>
      <point x="143" y="-6"/>
      <point x="163" y="-4"/>
      <point x="182" y="0" type="curve"/>
      <point x="168" y="30"/>
      <point x="161" y="107"/>
      <point x="161" y="227" type="curve" smooth="yes"/>
      <point x="161" y="252"/>
      <point x="162" y="279"/>
      <point x="163" y="305" type="curve"/>
      <point x="189" y="322"/>
      <point x="217" y="330"/>
      <point x="252" y="330" type="curve" smooth="yes"/>
      <point x="300" y="330"/>
      <point x="320" y="308"/>
      <point x="320" y="255" type="curve" smooth="yes"/>
      <point x="320" y="176"/>
      <point x="317" y="77"/>
      <point x="313" y="0" type="curve"/>
      <point x="336" y="-4"/>
      <point x="356" y="-6"/>
      <point x="374" y="-6" type="curve" smooth="yes"/>
      <point x="393" y="-6"/>
      <point x="413" y="-4"/>
      <point x="432" y="0" type="curve"/>
      <point x="419" y="29"/>
      <point x="412" y="82"/>
      <point x="412" y="150" type="curve" smooth="yes"/>
      <point x="412" y="181"/>
      <point x="416" y="251"/>
      <point x="416" y="280" type="curve" smooth="yes"/>
      <point x="416" y="372"/>
      <point x="377" y="418"/>
      <point x="299" y="418" type="curve" smooth="yes"/>
      <point x="249" y="418"/>
      <point x="199" y="393"/>
      <point x="163" y="353" type="curve"/>
      <point x="166" y="429"/>
      <point x="171" y="502"/>
      <point x="177" y="547" type="curve"/>
      <point x="131" y="547"/>
      <point x="96" y="541"/>
      <point x="60" y="527" type="curve"/>
      <point x="66" y="468"/>
      <point x="70" y="367"/>
      <point x="70" y="255" type="curve" smooth="yes"/>
      <point x="70" y="171"/>
      <point x="67" y="73"/>
      <point x="63" y="0" type="curve"/>
      <point x="86" y="-4"/>
      <point x="106" y="-6"/>
      <point x="124" y="-6" type="curve" smooth="yes"/>
    </contour>
    <contour>
      <point x="129" y="470" type="move" name="center"/>
    </contour>
    <contour>
      <point x="246" y="0" type="move" name="bottom"/>
    </contour>
    <contour>
      <point x="246" y="407" type="move" name="top"/>
    </contour>
  </outline>
</glyph>
<glyph name="k" format="1">
  <advance width="445"/>
  <unicode hex="006B"/>
  <outline>
    <contour>
      <point x="143" y="-6"/>
      <point x="163" y="-4"/>
      <point x="182" y="0" type="curve"/>
      <point x="172" y="22"/>
      <point x="165" y="70"/>
      <point x="162" y="142" type="curve"/>
      <point x="208" y="193" type="line"/>
      <point x="268" y="102"/>
      <point x="314" y="28"/>
      <point x="332" y="-6" type="curve"/>
      <point x="380" y="-6"/>
      <point x="418" y="-1"/>
      <point x="456" y="15" type="curve"/>
      <point x="408" y="51"/>
      <point x="339" y="156"/>
      <point x="274" y="265" type="curve"/>
      <point x="325" y="320"/>
      <point x="378" y="375"/>
      <point x="424" y="418" type="curve"/>
      <point x="391" y="418"/>
      <point x="361" y="416"/>
      <point x="321" y="407" type="curve"/>
      <point x="321" y="384"/>
      <point x="293" y="348"/>
      <point x="161" y="207" type="curve"/>
      <point x="161" y="227" type="line" smooth="yes"/>
      <point x="161" y="338"/>
      <point x="168" y="477"/>
      <point x="177" y="547" type="curve"/>
      <point x="131" y="547"/>
      <point x="96" y="541"/>
      <point x="60" y="527" type="curve"/>
      <point x="66" y="468"/>
      <point x="70" y="367"/>
      <point x="70" y="255" type="curve" smooth="yes"/>
      <point x="70" y="171"/>
      <point x="67" y="73"/>
      <point x="63" y="0" type="curve"/>
      <point x="86" y="-4"/>
      <point x="106" y="-6"/>
      <point x="124" y="-6" type="curve" smooth="yes"/>
    </contour>
    <contour>
      <point x="223" y="407" type="move" name="top"/>
    </contour>
    <contour>
      <point x="223" y="0" type="move" name="bottom"/>
    </contour>
  </outline>
</glyph>
<glyph name="o" format="1">
  <advance width="493"/>
  <unicode hex="006F"/>
  <outline>
    <contour>
      <point x="359" y="-11"/>
      <point x="453" y="82"/>
      <point x="453" y="215" type="curve" smooth="yes"/>
      <point x="453" y="337"/>
      <point x="376" y="418"/>
      <point x="261" y="418" type="curve" smooth="yes"/>
      <point x="131" y="418"/>
      <point x="40" y="325"/>
      <point x="40" y="192" type="curve" smooth="yes"/>
      <point x="40" y="70"/>
      <point x="115" y="-11"/>
      <point x="226" y="-11" type="curve" smooth="yes"/>
    </contour>
    <contour>
      <point x="180" y="34"/>
      <point x="132" y="94"/>
      <point x="132" y="197" type="curve" smooth="yes"/>
      <point x="132" y="284"/>
      <point x="180" y="339"/>
      <point x="256" y="339" type="curve"/>
      <point x="322" y="318"/>
      <point x="361" y="256"/>
      <point x="361" y="177" type="curve" smooth="yes"/>
      <point x="361" y="87"/>
      <point x="318" y="34"/>
      <point x="244" y="34" type="curve" smooth="yes"/>
    </contour>
    <contour>
      <point x="247" y="0" type="move" name="bottom"/>
    </contour>
    <contour>
      <point x="444" y="10" type="move" name="ogonek"/>
    </contour>
    <contour>
      <point x="247" y="407" type="move" name="top"/>
    </contour>
    <contour>
      <point x="473" y="407" type="move" name="topright"/>
    </contour>
    <contour>
      <point x="247" y="204" type="move" name="center"/>
    </contour>
  </outline>
</glyph>
<glyph name="q" format="1">
  <advance width="510"/>
  <unicode hex="0071"/>
  <outline>
    <contour>
      <point x="367" y="-180"/>
      <point x="402" y="-176"/>
      <point x="438" y="-165" type="curve"/>
      <point x="431" y="-92"/>
      <point x="426" y="55"/>
      <point x="426" y="213" type="curve" smooth="yes"/>
      <point x="426" y="321"/>
      <point x="434" y="344"/>
      <point x="465" y="378" type="curve"/>
      <point x="441" y="405"/>
      <point x="411" y="414"/>
      <point x="393" y="414" type="curve" smooth="yes"/>
      <point x="365" y="414"/>
      <point x="348" y="400"/>
      <point x="340" y="374" type="curve"/>
      <point x="303" y="403"/>
      <point x="261" y="418"/>
      <point x="215" y="418" type="curve" smooth="yes"/>
      <point x="103" y="418"/>
      <point x="45" y="343"/>
      <point x="45" y="199" type="curve" smooth="yes"/>
      <point x="45" y="60"/>
      <point x="102" y="-12"/>
      <point x="210" y="-12" type="curve" smooth="yes"/>
      <point x="256" y="-12"/>
      <point x="304" y="11"/>
      <point x="340" y="47" type="curve"/>
      <point x="338" y="-58"/>
      <point x="332" y="-131"/>
      <point x="321" y="-180" type="curve"/>
    </contour>
    <contour>
      <point x="177" y="50"/>
      <point x="142" y="106"/>
      <point x="142" y="193" type="curve" smooth="yes"/>
      <point x="142" y="285"/>
      <point x="179" y="334"/>
      <point x="248" y="334" type="curve" smooth="yes"/>
      <point x="281" y="334"/>
      <point x="311" y="326"/>
      <point x="335" y="310" type="curve"/>
      <point x="336" y="260"/>
      <point x="340" y="193"/>
      <point x="340" y="112" type="curve" smooth="yes"/>
      <point x="340" y="91" type="line"/>
      <point x="310" y="64"/>
      <point x="271" y="45"/>
      <point x="237" y="40" type="curve"/>
    </contour>
    <contour>
      <point x="252" y="407" type="move" name="top"/>
    </contour>
    <contour>
      <point x="252" y="0" type="move" name="bottom"/>
    </contour>
  </outline>
</glyph>
<glyph name="r" format="1">
  <advance width="340"/>
  <unicode hex="0072"/>
  <outline>
    <contour>
      <point x="172" y="-6"/>
      <point x="192" y="-4"/>
      <point x="211" y="0" type="curve"/>
      <point x="198" y="29"/>
      <point x="191" y="82"/>
      <point x="191" y="150" type="curve" smooth="yes"/>
      <point x="191" y="206"/>
      <point x="193" y="253"/>
      <point x="194" y="291" type="curve"/>
      <point x="223" y="309"/>
      <point x="276" y="323"/>
      <point x="335" y="315" type="curve"/>
      <point x="335" y="351"/>
      <point x="327" y="399"/>
      <point x="317" y="423" type="curve"/>
      <point x="265" y="409"/>
      <point x="228" y="381"/>
      <point x="195" y="340" type="curve"/>
      <point x="193" y="387"/>
      <point x="174" y="414"/>
      <point x="132" y="414" type="curve" smooth="yes"/>
      <point x="114" y="414"/>
      <point x="84" y="405"/>
      <point x="60" y="378" type="curve"/>
      <point x="91" y="344"/>
      <point x="99" y="321"/>
      <point x="99" y="213" type="curve" smooth="yes"/>
      <point x="99" y="139"/>
      <point x="96" y="57"/>
      <point x="92" y="0" type="curve"/>
      <point x="115" y="-4"/>
      <point x="135" y="-6"/>
      <point x="153" y="-6" type="curve" smooth="yes"/>
    </contour>
    <contour>
      <point x="194" y="407" type="move" name="top"/>
    </contour>
    <contour>
      <point x="148" y="0" type="move" name="bottom"/>
    </contour>
  </outline>
</glyph>
<glyph name="s" format="1">
  <advance width="393"/>
  <unicode hex="0073"/>
  <outline>
    <contour>
      <point x="300" y="-11"/>
      <point x="363" y="33"/>
      <point x="363" y="109" type="curve" smooth="yes"/>
      <point x="363" y="249"/>
      <point x="139" y="238"/>
      <point x="139" y="325" type="curve" smooth="yes"/>
      <point x="139" y="345"/>
      <point x="159" y="363"/>
      <point x="189" y="369" type="curve"/>
      <point x="220" y="369"/>
      <point x="269" y="342"/>
      <point x="318" y="298" type="curve"/>
      <point x="335" y="327"/>
      <point x="349" y="372"/>
      <point x="349" y="394" type="curve"/>
      <point x="307" y="410"/>
      <point x="256" y="418"/>
      <point x="196" y="418" type="curve" smooth="yes"/>
      <point x="104" y="418"/>
      <point x="41" y="374"/>
      <point x="41" y="310" type="curve" smooth="yes"/>
      <point x="41" y="164"/>
      <point x="265" y="172"/>
      <point x="265" y="98" type="curve" smooth="yes"/>
      <point x="265" y="65"/>
      <point x="234" y="48"/>
      <point x="174" y="48" type="curve" smooth="yes"/>
      <point x="124" y="48"/>
      <point x="78" y="68"/>
      <point x="53" y="101" type="curve"/>
      <point x="40" y="73"/>
      <point x="35" y="52"/>
      <point x="35" y="25" type="curve"/>
      <point x="74" y="1"/>
      <point x="127" y="-11"/>
      <point x="189" y="-11" type="curve" smooth="yes"/>
    </contour>
    <contour>
      <point x="197" y="407" type="move" name="top"/>
    </contour>
    <contour>
      <point x="192" y="0" type="move" name="bottom"/>
    </contour>
  </outline>
</glyph>
<glyph name="t" format="1">
  <advance width="309"/>
  <unicode hex="0074"/>
  <outline>
    <contour>
      <point x="208" y="-9"/>
      <point x="256" y="16"/>
      <point x="281" y="53" type="curve"/>
      <point x="275" y="79" type="line"/>
      <point x="256" y="74"/>
      <point x="229" y="70"/>
      <point x="200" y="69" type="curve"/>
      <point x="190" y="115"/>
      <point x="186" y="184"/>
      <point x="186" y="252" type="curve" smooth="yes"/>
      <point x="186" y="284"/>
      <point x="187" y="314"/>
      <point x="189" y="343" type="curve"/>
      <point x="226" y="342"/>
      <point x="253" y="338"/>
      <point x="272" y="331" type="curve"/>
      <point x="284" y="354"/>
      <point x="289" y="374"/>
      <point x="289" y="404" type="curve"/>
      <point x="270" y="400"/>
      <point x="239" y="397"/>
      <point x="191" y="396" type="curve"/>
      <point x="190" y="421"/>
      <point x="188" y="447"/>
      <point x="186" y="466" type="curve"/>
      <point x="157" y="469" type="line"/>
      <point x="117" y="426"/>
      <point x="76" y="393"/>
      <point x="30" y="368" type="curve"/>
      <point x="30" y="346"/>
      <point x="44" y="340"/>
      <point x="98" y="340" type="curve"/>
      <point x="99" y="329"/>
      <point x="100" y="311"/>
      <point x="100" y="297" type="curve" smooth="yes"/>
      <point x="100" y="208"/>
      <point x="96" y="144"/>
      <point x="96" y="73" type="curve" smooth="yes"/>
      <point x="96" y="12"/>
      <point x="114" y="-9"/>
      <point x="163" y="-9" type="curve" smooth="yes"/>
    </contour>
    <contour>
      <point x="157" y="0" type="move" name="bottom"/>
    </contour>
    <contour>
      <point x="167" y="407" type="move" name="top"/>
    </contour>
    <contour>
      <point x="304" y="407" type="move" name="topright"/>
    </contour>
    <contour>
      <point x="145" y="204" type="move" name="center"/>
    </contour>
  </outline>
</glyph>
<glyph name="braceleft" format="1">
  <advance width="356"/>
  <unicode hex="007B"/>
  <outline>
    <contour>
      <point x="324" y="-104"/>
      <point x="326" y="-90"/>
      <point x="326" y="-77" type="curve" smooth="yes"/>
      <point x="326" y="-61"/>
      <point x="324" y="-46"/>
      <point x="321" y="-30" type="curve"/>
      <point x="279" y="-36"/>
      <point x="244" y="-39"/>
      <point x="215" y="-39" type="curve"/>
      <point x="200" y="-19"/>
      <point x="187" y="15"/>
      <point x="187" y="78" type="curve" smooth="yes"/>
      <point x="187" y="103"/>
      <point x="189" y="129"/>
      <point x="189" y="154" type="curve" smooth="yes"/>
      <point x="189" y="208"/>
      <point x="181" y="254"/>
      <point x="135" y="262" type="curve"/>
      <point x="135" y="266" type="line"/>
      <point x="181" y="274"/>
      <point x="188" y="320"/>
      <point x="188" y="374" type="curve" smooth="yes"/>
      <point x="188" y="398"/>
      <point x="187" y="424"/>
      <point x="187" y="449" type="curve" smooth="yes"/>
      <point x="187" y="512"/>
      <point x="200" y="547"/>
      <point x="215" y="567" type="curve"/>
      <point x="244" y="567"/>
      <point x="279" y="564"/>
      <point x="321" y="558" type="curve"/>
      <point x="324" y="574"/>
      <point x="326" y="589"/>
      <point x="326" y="605" type="curve" smooth="yes"/>
      <point x="326" y="618"/>
      <point x="324" y="632"/>
      <point x="321" y="647" type="curve"/>
      <point x="182" y="647"/>
      <point x="83" y="612"/>
      <point x="83" y="476" type="curve" smooth="yes"/>
      <point x="83" y="434"/>
      <point x="102" y="365"/>
      <point x="102" y="327" type="curve" smooth="yes"/>
      <point x="102" y="306"/>
      <point x="86" y="287"/>
      <point x="45" y="286" type="curve"/>
      <point x="45" y="242" type="line"/>
      <point x="86" y="241"/>
      <point x="102" y="222"/>
      <point x="102" y="201" type="curve" smooth="yes"/>
      <point x="102" y="154"/>
      <point x="83" y="94"/>
      <point x="83" y="52" type="curve" smooth="yes"/>
      <point x="83" y="-84"/>
      <point x="182" y="-119"/>
      <point x="321" y="-119" type="curve"/>
    </contour>
  </outline>
</glyph>
<glyph name="cent" format="1">
  <advance width="410"/>
  <unicode hex="00A2"/>
  <outline>
    <contour>
      <point x="254" y="455" type="line"/>
      <point x="255" y="503"/>
      <point x="256" y="546"/>
      <point x="258" y="578" type="curve"/>
      <point x="247" y="582"/>
      <point x="234" y="584"/>
      <point x="224" y="584" type="curve" smooth="yes"/>
      <point x="213" y="584"/>
      <point x="200" y="581"/>
      <point x="191" y="578" type="curve"/>
      <point x="195" y="556"/>
      <point x="197" y="515"/>
      <point x="198" y="455" type="curve"/>
    </contour>
    <contour>
      <point x="239" y="-56"/>
      <point x="250" y="-55"/>
      <point x="261" y="-52" type="curve"/>
      <point x="257" y="-30"/>
      <point x="255" y="10"/>
      <point x="253" y="68" type="curve"/>
      <point x="197" y="68" type="line"/>
      <point x="196" y="21"/>
      <point x="195" y="-21"/>
      <point x="194" y="-52" type="curve"/>
      <point x="207" y="-55"/>
      <point x="218" y="-56"/>
      <point x="228" y="-56" type="curve" smooth="yes"/>
    </contour>
    <component base="c" yOffset="61"/>
  </outline>
</glyph>
<glyph name="currency" format="1">
  <advance width="583"/>
  <unicode hex="00A4"/>
  <outline>
    <contour>
      <point x="483" y="412"/>
      <point x="514" y="441"/>
      <point x="538" y="462" type="curve"/>
      <point x="527" y="486"/>
      <point x="514" y="495"/>
      <point x="491" y="510" type="curve"/>
      <point x="478" y="491"/>
      <point x="451" y="461"/>
      <point x="409" y="418" type="curve"/>
      <point x="448" y="378" type="line"/>
    </contour>
    <contour>
      <point x="105" y="35"/>
      <point x="132" y="65"/>
      <point x="172" y="107" type="curve"/>
      <point x="132" y="147" type="line"/>
      <point x="98" y="114"/>
      <point x="68" y="85"/>
      <point x="45" y="64" type="curve"/>
      <point x="56" y="46"/>
      <point x="75" y="28"/>
      <point x="93" y="17" type="curve"/>
    </contour>
    <contour>
      <point x="514" y="28"/>
      <point x="523" y="41"/>
      <point x="538" y="64" type="curve"/>
      <point x="519" y="77"/>
      <point x="489" y="104"/>
      <point x="446" y="146" type="curve"/>
      <point x="406" y="107" type="line"/>
      <point x="440" y="72"/>
      <point x="469" y="41"/>
      <point x="490" y="17" type="curve"/>
    </contour>
    <contour>
      <point x="175" y="423" type="line"/>
      <point x="142" y="457"/>
      <point x="113" y="487"/>
      <point x="92" y="510" type="curve"/>
      <point x="74" y="499"/>
      <point x="56" y="480"/>
      <point x="45" y="462" type="curve"/>
      <point x="63" y="450"/>
      <point x="93" y="423"/>
      <point x="135" y="383" type="curve"/>
    </contour>
    <component base="o" xOffset="46" yOffset="61"/>
  </outline>
</glyph>
<glyph name="brokenbar" format="1">
  <advance width="344"/>
  <unicode hex="00A6"/>
  <outline>
    <contour>
      <point x="137" y="312" type="line"/>
      <point x="167" y="341"/>
      <point x="197" y="366"/>
      <point x="228" y="388" type="curve"/>
      <point x="228" y="449"/>
      <point x="233" y="584"/>
      <point x="239" y="630" type="curve"/>
      <point x="213" y="636"/>
      <point x="191" y="639"/>
      <point x="171" y="639" type="curve" smooth="yes"/>
      <point x="147" y="639"/>
      <point x="122" y="636"/>
      <point x="100" y="630" type="curve"/>
      <point x="111" y="575"/>
      <point x="116" y="498"/>
      <point x="116" y="312" type="curve"/>
    </contour>
    <contour>
      <point x="192" y="-111"/>
      <point x="217" y="-108"/>
      <point x="239" y="-102" type="curve"/>
      <point x="228" y="-47"/>
      <point x="223" y="30"/>
      <point x="223" y="216" type="curve"/>
      <point x="202" y="216" type="line"/>
      <point x="172" y="187"/>
      <point x="142" y="162"/>
      <point x="111" y="140" type="curve"/>
      <point x="111" y="79"/>
      <point x="106" y="-56"/>
      <point x="100" y="-102" type="curve"/>
      <point x="126" y="-108"/>
      <point x="148" y="-111"/>
      <point x="168" y="-111" type="curve" smooth="yes"/>
    </contour>
  </outline>
</glyph>
<glyph name="logicalnot" format="1">
  <advance width="533"/>
  <unicode hex="00AC"/>
  <outline>
    <contour>
      <point x="437" y="69"/>
      <point x="451" y="71"/>
      <point x="463" y="74" type="curve"/>
      <point x="460" y="136"/>
      <point x="459" y="199"/>
      <point x="459" y="305" type="curve"/>
      <point x="395" y="302"/>
      <point x="331" y="301"/>
      <point x="267" y="301" type="curve" smooth="yes"/>
      <point x="203" y="301"/>
      <point x="139" y="302"/>
      <point x="75" y="305" type="curve"/>
      <point x="72" y="292"/>
      <point x="70" y="277"/>
      <point x="70" y="265" type="curve" smooth="yes"/>
      <point x="70" y="252"/>
      <point x="72" y="238"/>
      <point x="75" y="226" type="curve"/>
      <point x="139" y="229"/>
      <point x="203" y="230"/>
      <point x="267" y="230" type="curve" smooth="yes"/>
      <point x="309" y="230"/>
      <point x="353" y="229"/>
      <point x="388" y="228" type="curve"/>
      <point x="388" y="177"/>
      <point x="386" y="125"/>
      <point x="384" y="74" type="curve"/>
      <point x="397" y="71"/>
      <point x="412" y="69"/>
      <point x="424" y="69" type="curve" smooth="yes"/>
    </contour>
  </outline>
</glyph>
<glyph name="registered" format="1">
  <advance width="562"/>
  <unicode hex="00AE"/>
  <outline>
    <contour>
      <point x="411" y="218"/>
      <point x="517" y="324"/>
      <point x="517" y="454" type="curve" smooth="yes"/>
      <point x="517" y="584"/>
      <point x="411" y="690"/>
      <point x="281" y="690" type="curve" smooth="yes"/>
      <point x="151" y="690"/>
      <point x="45" y="584"/>
      <point x="45" y="454" type="curve" smooth="yes"/>
      <point x="45" y="324"/>
      <point x="151" y="218"/>
      <point x="281" y="218" type="curve" smooth="yes"/>
    </contour>
    <contour>
      <point x="173" y="257"/>
      <point x="84" y="345"/>
      <point x="84" y="454" type="curve" smooth="yes"/>
      <point x="84" y="562"/>
      <point x="173" y="650"/>
      <point x="281" y="650" type="curve" smooth="yes"/>
      <point x="389" y="650"/>
      <point x="478" y="562"/>
      <point x="478" y="454" type="curve" smooth="yes"/>
      <point x="478" y="345"/>
      <point x="389" y="257"/>
      <point x="281" y="257" type="curve" smooth="yes"/>
    </contour>
    <contour>
      <point x="223" y="323"/>
      <point x="234" y="324"/>
      <point x="244" y="326" type="curve"/>
      <point x="239" y="339"/>
      <point x="236" y="371"/>
      <point x="235" y="420" type="curve"/>
      <point x="246" y="417"/>
      <point x="260" y="416"/>
      <point x="287" y="416" type="curve"/>
      <point x="311" y="374"/>
      <point x="330" y="339"/>
      <point x="337" y="323" type="curve"/>
      <point x="362" y="323"/>
      <point x="383" y="325"/>
      <point x="404" y="333" type="curve"/>
      <point x="384" y="348"/>
      <point x="361" y="385"/>
      <point x="338" y="428" type="curve"/>
      <point x="372" y="443"/>
      <point x="392" y="470"/>
      <point x="392" y="504" type="curve" smooth="yes"/>
      <point x="392" y="560"/>
      <point x="352" y="592"/>
      <point x="279" y="592" type="curve" smooth="yes"/>
      <point x="240" y="592"/>
      <point x="200" y="586"/>
      <point x="178" y="578" type="curve"/>
      <point x="183" y="565"/>
      <point x="186" y="530"/>
      <point x="186" y="475" type="curve" smooth="yes"/>
      <point x="186" y="428"/>
      <point x="184" y="358"/>
      <point x="180" y="326" type="curve"/>
      <point x="191" y="324"/>
      <point x="203" y="323"/>
      <point x="213" y="323" type="curve" smooth="yes"/>
    </contour>
    <contour>
      <point x="280" y="443"/>
      <point x="257" y="448"/>
      <point x="235" y="455" type="curve"/>
      <point x="239" y="553" type="line"/>
      <point x="248" y="556"/>
      <point x="258" y="557"/>
      <point x="268" y="557" type="curve" smooth="yes"/>
      <point x="312" y="557"/>
      <point x="338" y="540"/>
      <point x="338" y="500" type="curve" smooth="yes"/>
      <point x="338" y="473"/>
      <point x="318" y="453"/>
      <point x="294" y="443" type="curve"/>
    </contour>
  </outline>
</glyph>
<glyph name="AE" format="1">
  <advance width="691"/>
  <unicode hex="00C6"/>
  <outline>
    <contour>
      <point x="57" y="-4"/>
      <point x="69" y="-2"/>
      <point x="82" y="2" type="curve"/>
      <point x="92" y="32"/>
      <point x="108" y="78"/>
      <point x="127" y="129" type="curve"/>
      <point x="149" y="133"/>
      <point x="182" y="134"/>
      <point x="227" y="134" type="curve" smooth="yes"/>
      <point x="265" y="134"/>
      <point x="309" y="133"/>
      <point x="344" y="130" type="curve"/>
      <point x="363" y="78"/>
      <point x="379" y="32"/>
      <point x="389" y="2" type="curve"/>
      <point x="423" y="3"/>
      <point x="478" y="4"/>
      <point x="536" y="4" type="curve" smooth="yes"/>
      <point x="578" y="4"/>
      <point x="622" y="1"/>
      <point x="650" y="-3" type="curve"/>
      <point x="663" y="14"/>
      <point x="671" y="68"/>
      <point x="671" y="103" type="curve"/>
      <point x="616" y="80"/>
      <point x="573" y="78"/>
      <point x="471" y="78" type="curve"/>
      <point x="453" y="121"/>
      <point x="431" y="176"/>
      <point x="409" y="233" type="curve"/>
      <point x="479" y="233"/>
      <point x="520" y="232"/>
      <point x="590" y="226" type="curve"/>
      <point x="593" y="241"/>
      <point x="594" y="254"/>
      <point x="594" y="266" type="curve" smooth="yes"/>
      <point x="594" y="279"/>
      <point x="593" y="292"/>
      <point x="590" y="305" type="curve"/>
      <point x="553" y="298"/>
      <point x="528" y="294"/>
      <point x="458" y="294" type="curve" smooth="yes"/>
      <point x="435" y="294"/>
      <point x="409" y="295"/>
      <point x="385" y="296" type="curve"/>
      <point x="332" y="439" type="line"/>
      <point x="365" y="444"/>
      <point x="409" y="448"/>
      <point x="448" y="448" type="curve" smooth="yes"/>
      <point x="499" y="448"/>
      <point x="556" y="439"/>
      <point x="590" y="421" type="curve"/>
      <point x="603" y="438"/>
      <point x="611" y="492"/>
      <point x="611" y="527" type="curve"/>
      <point x="558" y="522"/>
      <point x="480" y="520"/>
      <point x="403" y="520" type="curve" smooth="yes"/>
      <point x="328" y="520"/>
      <point x="254" y="522"/>
      <point x="209" y="527" type="curve"/>
      <point x="170" y="409"/>
      <point x="46" y="75"/>
      <point x="5" y="2" type="curve"/>
      <point x="19" y="-2"/>
      <point x="33" y="-4"/>
      <point x="47" y="-4" type="curve" smooth="yes"/>
    </contour>
    <contour>
      <point x="227" y="192"/>
      <point x="186" y="194"/>
      <point x="152" y="196" type="curve"/>
      <point x="181" y="275"/>
      <point x="212" y="357"/>
      <point x="236" y="412" type="curve"/>
      <point x="257" y="363"/>
      <point x="290" y="277"/>
      <point x="321" y="194" type="curve"/>
      <point x="305" y="193"/>
      <point x="284" y="192"/>
      <point x="263" y="192" type="curve" smooth="yes"/>
    </contour>
    <contour>
      <point x="351" y="527" type="move" name="top"/>
    </contour>
    <contour>
      <point x="351" y="0" type="move" name="bottom"/>
    </contour>
  </outline>
</glyph>
<glyph name="Thorn" format="1">
  <advance width="484"/>
  <unicode hex="00DE"/>
  <outline>
    <contour>
      <point x="145" y="-6"/>
      <point x="165" y="-4"/>
      <point x="184" y="0" type="curve"/>
      <point x="178" y="16"/>
      <point x="174" y="45"/>
      <point x="171" y="86" type="curve"/>
      <point x="192" y="82"/>
      <point x="215" y="80"/>
      <point x="238" y="80" type="curve" smooth="yes"/>
      <point x="368" y="80"/>
      <point x="458" y="160"/>
      <point x="458" y="276" type="curve" smooth="yes"/>
      <point x="458" y="389"/>
      <point x="383" y="452"/>
      <point x="248" y="452" type="curve" smooth="yes"/>
      <point x="223" y="452"/>
      <point x="197" y="450"/>
      <point x="174" y="446" type="curve"/>
      <point x="175" y="478"/>
      <point x="177" y="506"/>
      <point x="179" y="527" type="curve"/>
      <point x="156" y="531"/>
      <point x="136" y="533"/>
      <point x="118" y="533" type="curve" smooth="yes"/>
      <point x="99" y="533"/>
      <point x="79" y="531"/>
      <point x="60" y="527" type="curve"/>
      <point x="71" y="497"/>
      <point x="76" y="420"/>
      <point x="76" y="300" type="curve" smooth="yes"/>
      <point x="76" y="196"/>
      <point x="71" y="66"/>
      <point x="65" y="0" type="curve"/>
      <point x="88" y="-4"/>
      <point x="108" y="-6"/>
      <point x="126" y="-6" type="curve" smooth="yes"/>
    </contour>
    <contour>
      <point x="250" y="134"/>
      <point x="210" y="143"/>
      <point x="169" y="156" type="curve"/>
      <point x="166" y="183"/>
      <point x="167" y="328"/>
      <point x="171" y="375" type="curve"/>
      <point x="189" y="381"/>
      <point x="208" y="384"/>
      <point x="227" y="384" type="curve" smooth="yes"/>
      <point x="309" y="384"/>
      <point x="356" y="349"/>
      <point x="356" y="268" type="curve" smooth="yes"/>
      <point x="356" y="206"/>
      <point x="320" y="154"/>
      <point x="275" y="134" type="curve"/>
    </contour>
    <contour>
      <point x="242" y="527" type="move" name="top"/>
    </contour>
    <contour>
      <point x="242" y="0" type="move" name="bottom"/>
    </contour>
  </outline>
</glyph>
<glyph name="eth" format="1">
  <advance width="503"/>
  <unicode hex="00F0"/>
  <outline>
    <contour>
      <point x="453" y="215" type="line"/>
      <point x="453" y="365"/>
      <point x="327" y="496"/>
      <point x="152" y="608" type="curve"/>
      <point x="125" y="573" type="line"/>
      <point x="314" y="425"/>
      <point x="371" y="293"/>
      <point x="371" y="177" type="curve"/>
    </contour>
    <component base="o"/>
    <component base="uni0337" xOffset="76" yOffset="309" xScale="0.85" yScale="0.85"/>
  </outline>
</glyph>
<glyph name="Eng" format="1">
  <advance width="535"/>
  <unicode hex="014A"/>
  <outline>
    <contour>
      <point x="429" y="-122"/>
      <point x="472" y="-63"/>
      <point x="472" y="63" type="curve" smooth="yes"/>
      <point x="472" y="227" type="line" smooth="yes"/>
      <point x="472" y="331"/>
      <point x="476" y="461"/>
      <point x="480" y="527" type="curve"/>
      <point x="464" y="531"/>
      <point x="450" y="533"/>
      <point x="438" y="533" type="curve" smooth="yes"/>
      <point x="425" y="533"/>
      <point x="411" y="531"/>
      <point x="398" y="527" type="curve"/>
      <point x="406" y="497"/>
      <point x="409" y="420"/>
      <point x="409" y="300" type="curve" smooth="yes"/>
      <point x="409" y="243"/>
      <point x="408" y="177"/>
      <point x="407" y="119" type="curve"/>
      <point x="327" y="251"/>
      <point x="217" y="443"/>
      <point x="172" y="527" type="curve"/>
      <point x="147" y="531"/>
      <point x="127" y="533"/>
      <point x="110" y="533" type="curve" smooth="yes"/>
      <point x="89" y="533"/>
      <point x="53" y="527"/>
      <point x="55" y="527" type="curve"/>
      <point x="62" y="497"/>
      <point x="66" y="420"/>
      <point x="66" y="300" type="curve" smooth="yes"/>
      <point x="66" y="196"/>
      <point x="63" y="66"/>
      <point x="58" y="0" type="curve"/>
      <point x="74" y="-4"/>
      <point x="88" y="-6"/>
      <point x="100" y="-6" type="curve" smooth="yes"/>
      <point x="113" y="-6"/>
      <point x="127" y="-4"/>
      <point x="140" y="0" type="curve"/>
      <point x="133" y="30"/>
      <point x="129" y="107"/>
      <point x="129" y="227" type="curve" smooth="yes"/>
      <point x="129" y="285"/>
      <point x="130" y="349"/>
      <point x="132" y="407" type="curve"/>
      <point x="211" y="276"/>
      <point x="321" y="83"/>
      <point x="366" y="0" type="curve" smooth="yes"/>
      <point x="386" y="-38"/>
      <point x="359" y="-119"/>
      <point x="281" y="-171" type="curve"/>
      <point x="292" y="-189" type="line"/>
    </contour>
    <contour>
      <point x="269" y="527" type="move" name="top"/>
    </contour>
    <contour>
      <point x="269" y="0" type="move" name="bottom"/>
    </contour>
  </outline>
</glyph>
<glyph name="OE" format="1">
  <advance width="806"/>
  <unicode hex="0152"/>
  <outline>
    <contour>
      <point x="411" y="-6"/>
      <point x="466" y="4"/>
      <point x="559" y="4" type="curve" smooth="yes"/>
      <point x="628" y="4"/>
      <point x="698" y="2"/>
      <point x="745" y="-3" type="curve"/>
      <point x="758" y="14"/>
      <point x="766" y="68"/>
      <point x="766" y="103" type="curve"/>
      <point x="727" y="86"/>
      <point x="662" y="76"/>
      <point x="604" y="76" type="curve" smooth="yes"/>
      <point x="569" y="76"/>
      <point x="531" y="80"/>
      <point x="503" y="85" type="curve"/>
      <point x="501" y="107"/>
      <point x="499" y="203"/>
      <point x="499" y="233" type="curve"/>
      <point x="578" y="233"/>
      <point x="616" y="232"/>
      <point x="710" y="226" type="curve"/>
      <point x="713" y="241"/>
      <point x="714" y="254"/>
      <point x="714" y="266" type="curve" smooth="yes"/>
      <point x="714" y="279"/>
      <point x="713" y="292"/>
      <point x="710" y="305" type="curve"/>
      <point x="673" y="298"/>
      <point x="648" y="294"/>
      <point x="578" y="294" type="curve" smooth="yes"/>
      <point x="553" y="294"/>
      <point x="525" y="295"/>
      <point x="500" y="296" type="curve"/>
      <point x="501" y="346"/>
      <point x="503" y="397"/>
      <point x="505" y="440" type="curve"/>
      <point x="532" y="445"/>
      <point x="567" y="448"/>
      <point x="599" y="448" type="curve" smooth="yes"/>
      <point x="650" y="448"/>
      <point x="707" y="439"/>
      <point x="741" y="421" type="curve"/>
      <point x="754" y="438"/>
      <point x="762" y="492"/>
      <point x="762" y="527" type="curve"/>
      <point x="709" y="522"/>
      <point x="631" y="520"/>
      <point x="554" y="520" type="curve" smooth="yes"/>
      <point x="453" y="520"/>
      <point x="407" y="532"/>
      <point x="317" y="532" type="curve" smooth="yes"/>
      <point x="139" y="532"/>
      <point x="40" y="437"/>
      <point x="40" y="266" type="curve" smooth="yes"/>
      <point x="40" y="105"/>
      <point x="161" y="-6"/>
      <point x="337" y="-6" type="curve" smooth="yes"/>
    </contour>
    <contour>
      <point x="208" y="61"/>
      <point x="142" y="155"/>
      <point x="142" y="248" type="curve" smooth="yes"/>
      <point x="142" y="400"/>
      <point x="214" y="464"/>
      <point x="338" y="464" type="curve" smooth="yes"/>
      <point x="360" y="464"/>
      <point x="382" y="461"/>
      <point x="403" y="454" type="curve"/>
      <point x="406" y="415"/>
      <point x="407" y="364"/>
      <point x="407" y="300" type="curve" smooth="yes"/>
      <point x="407" y="225"/>
      <point x="404" y="136"/>
      <point x="401" y="67" type="curve"/>
      <point x="357" y="56"/>
      <point x="316" y="48"/>
      <point x="290" y="48" type="curve"/>
    </contour>
    <contour>
      <point x="403" y="527" type="move" name="top"/>
    </contour>
    <contour>
      <point x="403" y="0" type="move" name="bottom"/>
    </contour>
  </outline>
</glyph>
<glyph name="acutecomb" format="1">
  <advance width="201"/>
  <unicode hex="0301"/>
  <outline>
    <contour>
      <point x="94" y="490"/>
      <point x="162" y="520"/>
      <point x="201" y="563" type="curve"/>
      <point x="185" y="593"/>
      <point x="153" y="607"/>
      <point x="102" y="607" type="curve"/>
      <point x="94" y="569"/>
      <point x="50" y="524"/>
      <point x="0" y="502" type="curve"/>
      <point x="8" y="477" type="line"/>
    </contour>
    <contour>
      <point x="101" y="607" type="move" name="top"/>
    </contour>
    <contour>
      <point x="81" y="407" type="move" name="_top"/>
    </contour>
  </outline>
</glyph>
<glyph name="tildecomb" format="1">
  <advance width="307"/>
  <unicode hex="0303"/>
  <outline>
    <contour>
      <point x="64" y="603"/>
      <point x="257" y="389"/>
      <point x="284" y="579" type="curve"/>
      <point x="262" y="591" type="line"/>
      <point x="243" y="501"/>
      <point x="50" y="715"/>
      <point x="23" y="525" type="curve"/>
      <point x="45" y="513" type="line"/>
    </contour>
    <contour>
      <point x="154" y="607" type="move" name="top"/>
    </contour>
    <contour>
      <point x="154" y="407" type="move" name="_top"/>
    </contour>
  </outline>
</glyph>
<glyph name="uni0304" format="1">
  <advance width="295"/>
  <unicode hex="0304"/>
  <outline>
    <contour>
      <point x="46" y="511"/>
      <point x="104" y="517"/>
      <point x="154" y="517" type="curve" smooth="yes"/>
      <point x="190" y="517"/>
      <point x="226" y="516"/>
      <point x="265" y="513" type="curve"/>
      <point x="274" y="542"/>
      <point x="276" y="568"/>
      <point x="272" y="597" type="curve"/>
      <point x="249" y="591"/>
      <point x="191" y="584"/>
      <point x="141" y="584" type="curve" smooth="yes"/>
      <point x="105" y="584"/>
      <point x="69" y="585"/>
      <point x="30" y="588" type="curve"/>
      <point x="21" y="559"/>
      <point x="19" y="533"/>
      <point x="23" y="504" type="curve"/>
    </contour>
    <contour>
      <point x="148" y="600" type="move" name="top"/>
    </contour>
    <contour>
      <point x="148" y="407" type="move" name="_top"/>
    </contour>
  </outline>
</glyph>
<glyph name="uni030B" format="1">
  <advance width="361"/>
  <unicode hex="030B"/>
  <outline>
    <contour>
      <point x="265" y="490"/>
      <point x="322" y="520"/>
      <point x="361" y="563" type="curve"/>
      <point x="345" y="593"/>
      <point x="313" y="607"/>
      <point x="262" y="607" type="curve"/>
      <point x="254" y="569"/>
      <point x="220" y="524"/>
      <point x="180" y="502" type="curve"/>
      <point x="188" y="477" type="line"/>
    </contour>
    <contour>
      <point x="85" y="490"/>
      <point x="142" y="520"/>
      <point x="181" y="563" type="curve"/>
      <point x="165" y="593"/>
      <point x="133" y="607"/>
      <point x="82" y="607" type="curve"/>
      <point x="74" y="569"/>
      <point x="40" y="524"/>
      <point x="0" y="502" type="curve"/>
      <point x="8" y="477" type="line"/>
    </contour>
    <contour>
      <point x="181" y="607" type="move" name="top"/>
    </contour>
    <contour>
      <point x="151" y="407" type="move" name="_top"/>
    </contour>
  </outline>
</glyph>
<glyph name="uni030C" format="1">
  <advance width="271"/>
  <unicode hex="030C"/>
  <outline>
    <contour>
      <point x="123" y="475"/>
      <point x="152" y="478"/>
      <point x="181" y="489" type="curve"/>
      <point x="205" y="525"/>
      <point x="243" y="575"/>
      <point x="271" y="609" type="curve"/>
      <point x="246" y="615"/>
      <point x="226" y="617"/>
      <point x="206" y="617" type="curve"/>
      <point x="152" y="533" type="line"/>
      <point x="95" y="617" type="line"/>
      <point x="58" y="617"/>
      <point x="29" y="613"/>
      <point x="0" y="603" type="curve"/>
      <point x="33" y="565"/>
      <point x="53" y="536"/>
      <point x="87" y="475" type="curve"/>
    </contour>
    <contour>
      <point x="135" y="617" type="move" name="top"/>
    </contour>
    <contour>
      <point x="125" y="407" type="move" name="_top"/>
    </contour>
  </outline>
</glyph>
<glyph name="uni0327" format="1">
  <advance width="201"/>
  <unicode hex="0327"/>
  <outline>
    <contour>
      <point x="164" y="-219"/>
      <point x="197" y="-190"/>
      <point x="197" y="-140" type="curve" smooth="yes"/>
      <point x="197" y="-92"/>
      <point x="160" y="-56"/>
      <point x="100" y="-44" type="curve"/>
      <point x="109" y="14" type="line"/>
      <point x="71" y="14" type="line"/>
      <point x="55" y="-50" type="line"/>
      <point x="104" y="-61"/>
      <point x="130" y="-86"/>
      <point x="130" y="-120" type="curve" smooth="yes"/>
      <point x="130" y="-152"/>
      <point x="109" y="-172"/>
      <point x="74" y="-172" type="curve" smooth="yes"/>
      <point x="53" y="-172"/>
      <point x="30" y="-164"/>
      <point x="13" y="-150" type="curve"/>
      <point x="4" y="-173" type="line"/>
      <point x="25" y="-200"/>
      <point x="65" y="-219"/>
      <point x="105" y="-219" type="curve" smooth="yes"/>
    </contour>
    <contour>
      <point x="87" y="0" type="move" name="_bottom"/>
    </contour>
  </outline>
</glyph>
<glyph name="uni0335" format="1">
  <advance width="413"/>
  <unicode hex="0335"/>
  <outline>
    <contour>
      <point x="98" y="230"/>
      <point x="123" y="234"/>
      <point x="201" y="234" type="curve" smooth="yes"/>
      <point x="255" y="234"/>
      <point x="323" y="231"/>
      <point x="359" y="226" type="curve"/>
      <point x="361" y="239"/>
      <point x="363" y="254"/>
      <point x="363" y="266" type="curve" smooth="yes"/>
      <point x="363" y="279"/>
      <point x="361" y="293"/>
      <point x="359" y="305" type="curve"/>
      <point x="318" y="298"/>
      <point x="290" y="294"/>
      <point x="213" y="294" type="curve" smooth="yes"/>
      <point x="158" y="294"/>
      <point x="92" y="297"/>
      <point x="55" y="302" type="curve"/>
      <point x="52" y="289"/>
      <point x="50" y="274"/>
      <point x="50" y="262" type="curve" smooth="yes"/>
      <point x="50" y="249"/>
      <point x="52" y="235"/>
      <point x="55" y="223" type="curve"/>
    </contour>
    <contour>
      <point x="207" y="264" type="move" name="_center"/>
    </contour>
  </outline>
</glyph>
<glyph name="pi" format="1">
  <advance width="534"/>
  <unicode hex="03C0"/>
  <outline>
    <contour>
      <point x="167" y="-6"/>
      <point x="186" y="-4"/>
      <point x="205" y="-1" type="curve"/>
      <point x="194" y="22"/>
      <point x="189" y="82"/>
      <point x="189" y="176" type="curve" smooth="yes"/>
      <point x="189" y="223"/>
      <point x="190" y="277"/>
      <point x="193" y="324" type="curve"/>
      <point x="343" y="324" type="line"/>
      <point x="344" y="298"/>
      <point x="345" y="268"/>
      <point x="345" y="232" type="curve" smooth="yes"/>
      <point x="345" y="151"/>
      <point x="340" y="50"/>
      <point x="335" y="-1" type="curve"/>
      <point x="357" y="-4"/>
      <point x="376" y="-6"/>
      <point x="393" y="-6" type="curve" smooth="yes"/>
      <point x="411" y="-6"/>
      <point x="430" y="-4"/>
      <point x="449" y="-1" type="curve"/>
      <point x="438" y="22"/>
      <point x="433" y="82"/>
      <point x="433" y="176" type="curve" smooth="yes"/>
      <point x="433" y="222"/>
      <point x="434" y="278"/>
      <point x="437" y="324" type="curve"/>
      <point x="480" y="320" type="line"/>
      <point x="498" y="357"/>
      <point x="504" y="389"/>
      <point x="504" y="426" type="curve"/>
      <point x="461" y="416"/>
      <point x="365" y="407"/>
      <point x="279" y="407" type="curve" smooth="yes"/>
      <point x="205" y="407"/>
      <point x="133" y="408"/>
      <point x="55" y="412" type="curve"/>
      <point x="37" y="375"/>
      <point x="30" y="343"/>
      <point x="30" y="306" type="curve"/>
      <point x="46" y="310"/>
      <point x="70" y="314"/>
      <point x="99" y="317" type="curve"/>
      <point x="101" y="292"/>
      <point x="101" y="264"/>
      <point x="101" y="232" type="curve" smooth="yes"/>
      <point x="101" y="151"/>
      <point x="96" y="50"/>
      <point x="90" y="-1" type="curve"/>
      <point x="113" y="-4"/>
      <point x="132" y="-6"/>
      <point x="149" y="-6" type="curve" smooth="yes"/>
    </contour>
  </outline>
</glyph>
<glyph name="endash" format="1">
  <advance width="538"/>
  <unicode hex="2013"/>
  <outline>
    <contour>
      <point x="113" y="148"/>
      <point x="197" y="157"/>
      <point x="276" y="157" type="curve" smooth="yes"/>
      <point x="342" y="157"/>
      <point x="409" y="156"/>
      <point x="483" y="152" type="curve"/>
      <point x="483" y="189"/>
      <point x="477" y="221"/>
      <point x="457" y="258" type="curve"/>
      <point x="423" y="248"/>
      <point x="339" y="239"/>
      <point x="261" y="239" type="curve" smooth="yes"/>
      <point x="194" y="239"/>
      <point x="128" y="240"/>
      <point x="55" y="244" type="curve"/>
      <point x="55" y="207"/>
      <point x="61" y="175"/>
      <point x="80" y="138" type="curve"/>
    </contour>
  </outline>
</glyph>
<glyph name="bullet" format="1">
  <advance width="342"/>
  <unicode hex="2022"/>
  <outline>
    <contour>
      <point x="220" y="179"/>
      <point x="262" y="221"/>
      <point x="302" y="270" type="curve"/>
      <point x="253" y="310"/>
      <point x="211" y="352"/>
      <point x="171" y="401" type="curve"/>
      <point x="122" y="361"/>
      <point x="80" y="319"/>
      <point x="40" y="270" type="curve"/>
      <point x="89" y="230"/>
      <point x="131" y="188"/>
      <point x="171" y="139" type="curve"/>
    </contour>
  </outline>
</glyph>
<glyph name="trademark" format="1">
  <advance width="694"/>
  <unicode hex="2122"/>
  <outline>
    <contour>
      <point x="335" y="323"/>
      <point x="343" y="324"/>
      <point x="350" y="326" type="curve"/>
      <point x="346" y="341"/>
      <point x="344" y="380"/>
      <point x="344" y="440" type="curve" smooth="yes"/>
      <point x="344" y="465"/>
      <point x="344" y="492"/>
      <point x="345" y="517" type="curve"/>
      <point x="379" y="452"/>
      <point x="422" y="365"/>
      <point x="440" y="326" type="curve"/>
      <point x="443" y="325"/>
      <point x="447" y="324"/>
      <point x="451" y="324" type="curve" smooth="yes"/>
      <point x="455" y="324"/>
      <point x="459" y="325"/>
      <point x="463" y="326" type="curve"/>
      <point x="483" y="368"/>
      <point x="530" y="466"/>
      <point x="566" y="531" type="curve"/>
      <point x="566" y="516"/>
      <point x="567" y="497"/>
      <point x="567" y="476" type="curve" smooth="yes"/>
      <point x="567" y="424"/>
      <point x="564" y="359"/>
      <point x="561" y="326" type="curve"/>
      <point x="573" y="324"/>
      <point x="584" y="323"/>
      <point x="593" y="323" type="curve" smooth="yes"/>
      <point x="603" y="323"/>
      <point x="614" y="324"/>
      <point x="624" y="326" type="curve"/>
      <point x="618" y="341"/>
      <point x="615" y="380"/>
      <point x="615" y="440" type="curve" smooth="yes"/>
      <point x="615" y="492"/>
      <point x="618" y="557"/>
      <point x="621" y="590" type="curve"/>
      <point x="609" y="592"/>
      <point x="598" y="593"/>
      <point x="589" y="593" type="curve" smooth="yes"/>
      <point x="576" y="593"/>
      <point x="565" y="592"/>
      <point x="558" y="590" type="curve"/>
      <point x="539" y="550"/>
      <point x="492" y="454"/>
      <point x="462" y="397" type="curve"/>
      <point x="433" y="449"/>
      <point x="384" y="550"/>
      <point x="366" y="590" type="curve"/>
      <point x="353" y="592"/>
      <point x="343" y="593"/>
      <point x="334" y="593" type="curve" smooth="yes"/>
      <point x="323" y="593"/>
      <point x="313" y="592"/>
      <point x="304" y="590" type="curve"/>
      <point x="308" y="571"/>
      <point x="310" y="539"/>
      <point x="310" y="476" type="curve" smooth="yes"/>
      <point x="310" y="424"/>
      <point x="308" y="359"/>
      <point x="306" y="326" type="curve"/>
      <point x="314" y="324"/>
      <point x="322" y="323"/>
      <point x="328" y="323" type="curve" smooth="yes"/>
    </contour>
    <contour>
      <point x="162" y="323"/>
      <point x="173" y="324"/>
      <point x="183" y="326" type="curve"/>
      <point x="177" y="341"/>
      <point x="174" y="379"/>
      <point x="174" y="440" type="curve" smooth="yes"/>
      <point x="174" y="474"/>
      <point x="176" y="516"/>
      <point x="178" y="547" type="curve"/>
      <point x="210" y="547"/>
      <point x="243" y="545"/>
      <point x="262" y="544" type="curve"/>
      <point x="264" y="553"/>
      <point x="265" y="561"/>
      <point x="265" y="568" type="curve" smooth="yes"/>
      <point x="265" y="576"/>
      <point x="264" y="584"/>
      <point x="262" y="591" type="curve"/>
      <point x="249" y="587"/>
      <point x="217" y="585"/>
      <point x="166" y="585" type="curve" smooth="yes"/>
      <point x="121" y="585"/>
      <point x="66" y="587"/>
      <point x="38" y="589" type="curve"/>
      <point x="36" y="580"/>
      <point x="35" y="572"/>
      <point x="35" y="565" type="curve" smooth="yes"/>
      <point x="35" y="558"/>
      <point x="36" y="549"/>
      <point x="38" y="542" type="curve"/>
      <point x="50" y="546"/>
      <point x="78" y="548"/>
      <point x="123" y="548" type="curve"/>
      <point x="125" y="530"/>
      <point x="126" y="506"/>
      <point x="126" y="476" type="curve" smooth="yes"/>
      <point x="126" y="425"/>
      <point x="123" y="359"/>
      <point x="120" y="326" type="curve"/>
      <point x="132" y="324"/>
      <point x="143" y="323"/>
      <point x="152" y="323" type="curve" smooth="yes"/>
    </contour>
  </outline>
</glyph>
<glyph name="product" format="1">
  <advance width="534"/>
  <unicode hex="220F"/>
  <outline>
    <contour>
      <point x="71" y="451"/>
      <point x="169" y="460"/>
      <point x="256" y="460" type="curve" smooth="yes"/>
      <point x="328" y="460"/>
      <point x="401" y="459"/>
      <point x="480" y="455" type="curve"/>
      <point x="498" y="492"/>
      <point x="504" y="524"/>
      <point x="504" y="561" type="curve"/>
      <point x="461" y="551"/>
      <point x="365" y="542"/>
      <point x="279" y="542" type="curve" smooth="yes"/>
      <point x="205" y="542"/>
      <point x="133" y="543"/>
      <point x="55" y="547" type="curve"/>
      <point x="37" y="510"/>
      <point x="30" y="478"/>
      <point x="30" y="441" type="curve"/>
    </contour>
    <component base="I" xOffset="23"/>
    <component base="I" xOffset="267"/>
  </outline>
</glyph>
<glyph name="summation" format="1">
  <advance width="515"/>
  <unicode hex="2211"/>
  <outline>
    <contour>
      <point x="440" y="30"/>
      <point x="446" y="61"/>
      <point x="444" y="101" type="curve"/>
      <point x="395" y="89"/>
      <point x="325" y="82"/>
      <point x="260" y="82" type="curve" smooth="yes"/>
      <point x="213" y="82"/>
      <point x="172" y="83"/>
      <point x="147" y="85" type="curve"/>
      <point x="395" y="283" type="line"/>
      <point x="342" y="324"/>
      <point x="291" y="377"/>
      <point x="227" y="460" type="curve"/>
      <point x="311" y="460"/>
      <point x="356" y="459"/>
      <point x="441" y="455" type="curve"/>
      <point x="456" y="490"/>
      <point x="462" y="521"/>
      <point x="460" y="561" type="curve"/>
      <point x="411" y="549"/>
      <point x="341" y="542"/>
      <point x="276" y="542" type="curve" smooth="yes"/>
      <point x="206" y="542"/>
      <point x="160" y="543"/>
      <point x="91" y="547" type="curve"/>
      <point x="76" y="510"/>
      <point x="70" y="478"/>
      <point x="72" y="441" type="curve"/>
      <point x="123" y="406"/>
      <point x="149" y="378"/>
      <point x="253" y="250" type="curve"/>
      <point x="157" y="178"/>
      <point x="91" y="120"/>
      <point x="65" y="83" type="curve"/>
      <point x="57" y="59"/>
      <point x="53" y="31"/>
      <point x="55" y="0" type="curve"/>
      <point x="241" y="0" type="line" smooth="yes"/>
      <point x="310" y="0"/>
      <point x="356" y="-1"/>
      <point x="425" y="-5" type="curve"/>
    </contour>
  </outline>
</glyph>
<glyph name="minus" format="1">
  <advance width="533"/>
  <unicode hex="2212"/>
  <outline>
    <contour>
      <point x="139" y="229"/>
      <point x="203" y="230"/>
      <point x="267" y="230" type="curve" smooth="yes"/>
      <point x="331" y="230"/>
      <point x="395" y="229"/>
      <point x="459" y="226" type="curve"/>
      <point x="461" y="239"/>
      <point x="463" y="254"/>
      <point x="463" y="266" type="curve" smooth="yes"/>
      <point x="463" y="279"/>
      <point x="461" y="293"/>
      <point x="459" y="305" type="curve"/>
      <point x="395" y="302"/>
      <point x="331" y="301"/>
      <point x="267" y="301" type="curve" smooth="yes"/>
      <point x="203" y="301"/>
      <point x="139" y="302"/>
      <point x="75" y="305" type="curve"/>
      <point x="72" y="292"/>
      <point x="70" y="277"/>
      <point x="70" y="265" type="curve" smooth="yes"/>
      <point x="70" y="252"/>
      <point x="72" y="238"/>
      <point x="75" y="226" type="curve"/>
    </contour>
  </outline>
</glyph>
<glyph name="uni2219" format="1">
  <advance width="342"/>
  <unicode hex="2219"/>
  <outline>
    <contour>
      <point x="220" y="174"/>
      <point x="262" y="216"/>
      <point x="302" y="265" type="curve"/>
      <point x="253" y="305"/>
      <point x="211" y="347"/>
      <point x="171" y="396" type="curve"/>
      <point x="122" y="356"/>
      <point x="80" y="314"/>
      <point x="40" y="265" type="curve"/>
      <point x="89" y="225"/>
      <point x="131" y="183"/>
      <point x="171" y="134" type="curve"/>
    </contour>
  </outline>
</glyph>
<glyph name="integral" format="1">
  <advance width="346"/>
  <unicode hex="222B"/>
  <outline>
    <contour>
      <point x="200" y="-199"/>
      <point x="222" y="-52"/>
      <point x="222" y="35" type="curve" smooth="yes"/>
      <point x="222" y="147"/>
      <point x="218" y="222"/>
      <point x="218" y="277" type="curve" smooth="yes"/>
      <point x="218" y="464"/>
      <point x="225" y="515"/>
      <point x="253" y="536" type="curve"/>
      <point x="281" y="536"/>
      <point x="326" y="512"/>
      <point x="367" y="475" type="curve"/>
      <point x="383" y="503"/>
      <point x="396" y="549"/>
      <point x="396" y="571" type="curve"/>
      <point x="368" y="580"/>
      <point x="335" y="585"/>
      <point x="300" y="585" type="curve" smooth="yes"/>
      <point x="146" y="585"/>
      <point x="124" y="438"/>
      <point x="124" y="351" type="curve" smooth="yes"/>
      <point x="124" y="239"/>
      <point x="128" y="164"/>
      <point x="128" y="109" type="curve" smooth="yes"/>
      <point x="128" y="-78"/>
      <point x="121" y="-129"/>
      <point x="93" y="-150" type="curve"/>
      <point x="65" y="-150"/>
      <point x="20" y="-126"/>
      <point x="-21" y="-89" type="curve"/>
      <point x="-37" y="-117"/>
      <point x="-50" y="-163"/>
      <point x="-50" y="-185" type="curve"/>
      <point x="-22" y="-194"/>
      <point x="11" y="-199"/>
      <point x="46" y="-199" type="curve" smooth="yes"/>
    </contour>
  </outline>
</glyph>
<glyph name="lozenge" format="1">
  <advance width="496"/>
  <unicode hex="25CA"/>
  <outline>
    <contour>
      <point x="267" y="-8"/>
      <point x="286" y="-5"/>
      <point x="304" y="0" type="curve"/>
      <point x="345" y="88"/>
      <point x="395" y="176"/>
      <point x="456" y="264" type="curve"/>
      <point x="395" y="352"/>
      <point x="345" y="439"/>
      <point x="304" y="527" type="curve"/>
      <point x="286" y="532"/>
      <point x="267" y="535"/>
      <point x="248" y="535" type="curve" smooth="yes"/>
      <point x="229" y="535"/>
      <point x="211" y="532"/>
      <point x="192" y="527" type="curve"/>
      <point x="151" y="439"/>
      <point x="101" y="352"/>
      <point x="40" y="264" type="curve"/>
      <point x="101" y="176"/>
      <point x="151" y="88"/>
      <point x="192" y="0" type="curve"/>
      <point x="211" y="-5"/>
      <point x="229" y="-8"/>
      <point x="248" y="-8" type="curve" smooth="yes"/>
    </contour>
    <contour>
      <point x="137" y="264" type="line"/>
      <point x="248" y="456" type="line"/>
      <point x="359" y="264" type="line"/>
      <point x="248" y="71" type="line"/>
    </contour>
  </outline>
</glyph>
<glyph name="fi" format="1">
  <advance width="525"/>
  <unicode hex="FB01"/>
  <outline>
    <contour>
      <point x="169" y="-78"/>
      <point x="195" y="-34"/>
      <point x="195" y="63" type="curve" smooth="yes"/>
      <point x="195" y="110"/>
      <point x="188" y="183"/>
      <point x="188" y="277" type="curve" smooth="yes"/>
      <point x="188" y="343" type="line"/>
      <point x="358" y="343" type="line"/>
      <point x="359" y="321"/>
      <point x="360" y="296"/>
      <point x="360" y="272" type="curve" smooth="yes"/>
      <point x="360" y="208"/>
      <point x="356" y="144"/>
      <point x="356" y="73" type="curve" smooth="yes"/>
      <point x="356" y="10"/>
      <point x="372" y="-9"/>
      <point x="413" y="-9" type="curve" smooth="yes"/>
      <point x="431" y="-9"/>
      <point x="461" y="0"/>
      <point x="485" y="27" type="curve"/>
      <point x="454" y="61"/>
      <point x="446" y="84"/>
      <point x="446" y="192" type="curve" smooth="yes"/>
      <point x="446" y="294"/>
      <point x="451" y="379"/>
      <point x="458" y="417" type="curve"/>
      <point x="421" y="417"/>
      <point x="388" y="413"/>
      <point x="351" y="397" type="curve"/>
      <point x="190" y="397" type="line"/>
      <point x="193" y="488"/>
      <point x="202" y="520"/>
      <point x="223" y="536" type="curve"/>
      <point x="261" y="536"/>
      <point x="321" y="508"/>
      <point x="377" y="465" type="curve"/>
      <point x="393" y="493"/>
      <point x="406" y="539"/>
      <point x="406" y="561" type="curve"/>
      <point x="366" y="576"/>
      <point x="320" y="585"/>
      <point x="270" y="585" type="curve" smooth="yes"/>
      <point x="178" y="585"/>
      <point x="110" y="513"/>
      <point x="94" y="403" type="curve"/>
      <point x="76" y="390"/>
      <point x="57" y="379"/>
      <point x="35" y="368" type="curve"/>
      <point x="35" y="347"/>
      <point x="45" y="341"/>
      <point x="94" y="340" type="curve"/>
      <point x="110" y="-35"/>
      <point x="105" y="-76"/>
      <point x="50" y="-146" type="curve"/>
      <point x="64" y="-159" type="line"/>
    </contour>
    <contour>
      <point x="459" y="0" type="move" name="ogonek"/>
    </contour>
    <contour>
      <point x="146" y="0" type="move" name="bottom"/>
    </contour>
    <contour>
      <point x="146" y="407" type="move" name="top"/>
    </contour>
  </outline>
</glyph>
<glyph name="fl" format="1">
  <advance width="525"/>
  <unicode hex="FB02"/>
  <outline>
    <contour>
      <point x="169" y="-78"/>
      <point x="195" y="-34"/>
      <point x="195" y="63" type="curve" smooth="yes"/>
      <point x="195" y="110"/>
      <point x="188" y="183"/>
      <point x="188" y="277" type="curve" smooth="yes"/>
      <point x="188" y="343" type="line"/>
      <point x="233" y="342"/>
      <point x="263" y="338"/>
      <point x="287" y="331" type="curve"/>
      <point x="299" y="356"/>
      <point x="304" y="376"/>
      <point x="304" y="404" type="curve"/>
      <point x="279" y="399"/>
      <point x="239" y="397"/>
      <point x="190" y="396" type="curve"/>
      <point x="193" y="488"/>
      <point x="202" y="520"/>
      <point x="223" y="536" type="curve"/>
      <point x="262" y="536"/>
      <point x="303" y="521"/>
      <point x="348" y="496" type="curve"/>
      <point x="356" y="449"/>
      <point x="360" y="384"/>
      <point x="360" y="297" type="curve" smooth="yes"/>
      <point x="360" y="208"/>
      <point x="356" y="144"/>
      <point x="356" y="73" type="curve" smooth="yes"/>
      <point x="356" y="10"/>
      <point x="372" y="-9"/>
      <point x="413" y="-9" type="curve" smooth="yes"/>
      <point x="431" y="-9"/>
      <point x="461" y="0"/>
      <point x="485" y="27" type="curve"/>
      <point x="454" y="61"/>
      <point x="446" y="84"/>
      <point x="446" y="192" type="curve" smooth="yes"/>
      <point x="446" y="356"/>
      <point x="451" y="485"/>
      <point x="458" y="547" type="curve"/>
      <point x="400" y="571"/>
      <point x="347" y="585"/>
      <point x="281" y="585" type="curve" smooth="yes"/>
      <point x="163" y="585"/>
      <point x="109" y="513"/>
      <point x="94" y="403" type="curve"/>
      <point x="76" y="390"/>
      <point x="57" y="379"/>
      <point x="35" y="368" type="curve"/>
      <point x="35" y="347"/>
      <point x="45" y="341"/>
      <point x="94" y="340" type="curve"/>
      <point x="110" y="-35"/>
      <point x="105" y="-76"/>
      <point x="50" y="-146" type="curve"/>
      <point x="64" y="-159" type="line"/>
    </contour>
  </outline>
</glyph>
<glyph name="f_f" format="1">
  <advance width="549"/>
  <outline>
    <contour>
      <point x="169" y="-78"/>
      <point x="195" y="-34"/>
      <point x="195" y="63" type="curve" smooth="yes"/>
      <point x="195" y="110"/>
      <point x="188" y="183"/>
      <point x="188" y="277" type="curve" smooth="yes"/>
      <point x="188" y="343" type="line"/>
      <point x="352" y="343" type="line"/>
      <point x="368" y="-35"/>
      <point x="363" y="-76"/>
      <point x="308" y="-146" type="curve"/>
      <point x="322" y="-159" type="line"/>
      <point x="427" y="-78"/>
      <point x="453" y="-34"/>
      <point x="453" y="63" type="curve" smooth="yes"/>
      <point x="453" y="110"/>
      <point x="446" y="183"/>
      <point x="446" y="277" type="curve" smooth="yes"/>
      <point x="446" y="343" type="line"/>
      <point x="486" y="342"/>
      <point x="513" y="338"/>
      <point x="535" y="331" type="curve"/>
      <point x="547" y="356"/>
      <point x="552" y="376"/>
      <point x="552" y="404" type="curve"/>
      <point x="529" y="400"/>
      <point x="493" y="397"/>
      <point x="448" y="396" type="curve"/>
      <point x="451" y="488"/>
      <point x="460" y="520"/>
      <point x="481" y="536" type="curve"/>
      <point x="509" y="536"/>
      <point x="554" y="512"/>
      <point x="595" y="475" type="curve"/>
      <point x="611" y="503"/>
      <point x="624" y="549"/>
      <point x="624" y="571" type="curve"/>
      <point x="596" y="580"/>
      <point x="563" y="585"/>
      <point x="528" y="585" type="curve" smooth="yes"/>
      <point x="489" y="585"/>
      <point x="454" y="572"/>
      <point x="426" y="549" type="curve"/>
      <point x="379" y="572"/>
      <point x="326" y="585"/>
      <point x="270" y="585" type="curve" smooth="yes"/>
      <point x="178" y="585"/>
      <point x="110" y="513"/>
      <point x="94" y="403" type="curve"/>
      <point x="76" y="390"/>
      <point x="57" y="379"/>
      <point x="35" y="368" type="curve"/>
      <point x="35" y="347"/>
      <point x="45" y="341"/>
      <point x="94" y="340" type="curve"/>
      <point x="110" y="-35"/>
      <point x="105" y="-76"/>
      <point x="50" y="-146" type="curve"/>
      <point x="64" y="-159" type="line"/>
    </contour>
    <contour>
      <point x="197" y="475"/>
      <point x="212" y="502"/>
      <point x="243" y="516" type="curve"/>
      <point x="395" y="516" type="line"/>
      <point x="372" y="485"/>
      <point x="357" y="444"/>
      <point x="351" y="397" type="curve"/>
      <point x="191" y="397" type="line"/>
    </contour>
  </outline>
</glyph>
<glyph name="f_f_i" format="1">
  <advance width="793"/>
  <outline>
    <contour>
      <point x="169" y="-78"/>
      <point x="195" y="-34"/>
      <point x="195" y="63" type="curve" smooth="yes"/>
      <point x="195" y="110"/>
      <point x="188" y="183"/>
      <point x="188" y="277" type="curve"/>
      <point x="188" y="343" type="line"/>
      <point x="362" y="343" type="line"/>
      <point x="378" y="-35"/>
      <point x="373" y="-76"/>
      <point x="318" y="-146" type="curve"/>
      <point x="333" y="-159" type="line"/>
      <point x="437" y="-78"/>
      <point x="463" y="-34"/>
      <point x="463" y="63" type="curve" smooth="yes"/>
      <point x="463" y="110"/>
      <point x="456" y="183"/>
      <point x="456" y="277" type="curve" smooth="yes"/>
      <point x="456" y="343" type="line"/>
      <point x="626" y="343" type="line"/>
      <point x="627" y="321"/>
      <point x="628" y="296"/>
      <point x="628" y="272" type="curve" smooth="yes"/>
      <point x="628" y="208"/>
      <point x="624" y="144"/>
      <point x="624" y="73" type="curve" smooth="yes"/>
      <point x="624" y="10"/>
      <point x="640" y="-9"/>
      <point x="681" y="-9" type="curve" smooth="yes"/>
      <point x="699" y="-9"/>
      <point x="729" y="0"/>
      <point x="753" y="27" type="curve"/>
      <point x="722" y="61"/>
      <point x="714" y="84"/>
      <point x="714" y="192" type="curve" smooth="yes"/>
      <point x="714" y="294"/>
      <point x="719" y="379"/>
      <point x="726" y="417" type="curve"/>
      <point x="689" y="417"/>
      <point x="656" y="413"/>
      <point x="619" y="397" type="curve"/>
      <point x="458" y="397" type="line"/>
      <point x="461" y="488"/>
      <point x="471" y="520"/>
      <point x="492" y="536" type="curve"/>
      <point x="529" y="536"/>
      <point x="589" y="508"/>
      <point x="645" y="465" type="curve"/>
      <point x="661" y="493"/>
      <point x="674" y="539"/>
      <point x="674" y="561" type="curve"/>
      <point x="634" y="576"/>
      <point x="588" y="585"/>
      <point x="538" y="585" type="curve" smooth="yes"/>
      <point x="497" y="585"/>
      <point x="461" y="571"/>
      <point x="432" y="546" type="curve"/>
      <point x="384" y="571"/>
      <point x="329" y="585"/>
      <point x="270" y="585" type="curve" smooth="yes"/>
      <point x="178" y="585"/>
      <point x="110" y="513"/>
      <point x="94" y="403" type="curve"/>
      <point x="76" y="390"/>
      <point x="57" y="379"/>
      <point x="35" y="368" type="curve"/>
      <point x="35" y="347"/>
      <point x="45" y="341"/>
      <point x="94" y="340" type="curve"/>
      <point x="110" y="-35"/>
      <point x="105" y="-76"/>
      <point x="50" y="-146" type="curve"/>
      <point x="64" y="-159" type="line"/>
    </contour>
    <contour>
      <point x="197" y="475"/>
      <point x="212" y="502"/>
      <point x="243" y="516" type="curve"/>
      <point x="405" y="516" type="line"/>
      <point x="382" y="485"/>
      <point x="367" y="444"/>
      <point x="361" y="397" type="curve"/>
      <point x="191" y="397" type="line"/>
    </contour>
  </outline>
</glyph>
<glyph name="nine.dnom" format="1">
  <advance width="348"/>
  <outline>
    <contour>
      <point x="243" y="-6"/>
      <point x="297" y="51"/>
      <point x="297" y="151" type="curve" smooth="yes"/>
      <point x="297" y="227"/>
      <point x="247" y="277"/>
      <point x="171" y="277" type="curve" smooth="yes"/>
      <point x="102" y="277"/>
      <point x="53" y="235"/>
      <point x="53" y="175" type="curve" smooth="yes"/>
      <point x="53" y="121"/>
      <point x="92" y="85"/>
      <point x="151" y="85" type="curve" smooth="yes"/>
      <point x="178" y="85"/>
      <point x="203" y="93"/>
      <point x="226" y="110" type="curve"/>
      <point x="221" y="59"/>
      <point x="194" y="34"/>
      <point x="147" y="34" type="curve" smooth="yes"/>
      <point x="112" y="34"/>
      <point x="81" y="46"/>
      <point x="65" y="66" type="curve"/>
      <point x="58" y="46"/>
      <point x="55" y="33"/>
      <point x="55" y="18" type="curve"/>
      <point x="82" y="2"/>
      <point x="114" y="-6"/>
      <point x="146" y="-6" type="curve" smooth="yes"/>
    </contour>
    <contour>
      <point x="144" y="122"/>
      <point x="123" y="143"/>
      <point x="123" y="176" type="curve" smooth="yes"/>
      <point x="123" y="208"/>
      <point x="142" y="229"/>
      <point x="171" y="229" type="curve" smooth="yes"/>
      <point x="204" y="229"/>
      <point x="223" y="200"/>
      <point x="226" y="147" type="curve"/>
      <point x="212" y="135"/>
      <point x="195" y="127"/>
      <point x="178" y="122" type="curve"/>
    </contour>
  </outline>
</glyph>
<glyph name="one.dnom" format="1">
  <advance width="350"/>
  <outline>
    <contour>
      <point x="213" y="-3"/>
      <point x="226" y="-2"/>
      <point x="239" y="0" type="curve"/>
      <point x="234" y="52"/>
      <point x="232" y="104"/>
      <point x="232" y="157" type="curve" smooth="yes"/>
      <point x="232" y="196"/>
      <point x="233" y="235"/>
      <point x="236" y="274" type="curve"/>
      <point x="221" y="276"/>
      <point x="208" y="277"/>
      <point x="196" y="277" type="curve"/>
      <point x="180" y="259"/>
      <point x="115" y="222"/>
      <point x="79" y="204" type="curve"/>
      <point x="85" y="189"/>
      <point x="92" y="174"/>
      <point x="104" y="160" type="curve"/>
      <point x="167" y="197" type="line"/>
      <point x="167" y="151" type="line" smooth="yes"/>
      <point x="167" y="102"/>
      <point x="164" y="38"/>
      <point x="161" y="0" type="curve"/>
      <point x="176" y="-2"/>
      <point x="189" y="-3"/>
      <point x="201" y="-3" type="curve" smooth="yes"/>
    </contour>
  </outline>
</glyph>
<glyph name="seven.dnom" format="1">
  <advance width="349"/>
  <outline>
    <contour>
      <point x="277" y="196" type="line" smooth="yes"/>
      <point x="288" y="215"/>
      <point x="292" y="231"/>
      <point x="292" y="249" type="curve" smooth="yes"/>
      <point x="292" y="257"/>
      <point x="287" y="273"/>
      <point x="274" y="284" type="curve"/>
      <point x="255" y="273"/>
      <point x="225" y="268"/>
      <point x="172" y="268" type="curve" smooth="yes"/>
      <point x="123" y="268"/>
      <point x="79" y="270"/>
      <point x="58" y="274" type="curve"/>
      <point x="58" y="250"/>
      <point x="64" y="219"/>
      <point x="73" y="199" type="curve"/>
      <point x="86" y="206"/>
      <point x="103" y="208"/>
      <point x="131" y="208" type="curve" smooth="yes"/>
      <point x="231" y="208" type="line"/>
      <point x="167" y="105"/>
      <point x="108" y="41"/>
      <point x="80" y="13" type="curve"/>
      <point x="105" y="1"/>
      <point x="130" y="-3"/>
      <point x="162" y="-3" type="curve"/>
    </contour>
  </outline>
</glyph>
<glyph name="six.dnom" format="1">
  <advance width="350"/>
  <outline>
    <contour>
      <point x="244" y="-5"/>
      <point x="297" y="33"/>
      <point x="297" y="87" type="curve" smooth="yes"/>
      <point x="297" y="141"/>
      <point x="255" y="177"/>
      <point x="194" y="177" type="curve" smooth="yes"/>
      <point x="167" y="177"/>
      <point x="142" y="169"/>
      <point x="120" y="154" type="curve"/>
      <point x="128" y="194"/>
      <point x="148" y="220"/>
      <point x="180" y="230" type="curve"/>
      <point x="198" y="230"/>
      <point x="231" y="214"/>
      <point x="257" y="193" type="curve"/>
      <point x="271" y="207"/>
      <point x="283" y="242"/>
      <point x="283" y="265" type="curve"/>
      <point x="264" y="273"/>
      <point x="237" y="277"/>
      <point x="207" y="277" type="curve" smooth="yes"/>
      <point x="113" y="277"/>
      <point x="47" y="225"/>
      <point x="47" y="126" type="curve" smooth="yes"/>
      <point x="47" y="48"/>
      <point x="97" y="-5"/>
      <point x="171" y="-5" type="curve" smooth="yes"/>
    </contour>
    <contour>
      <point x="138" y="34"/>
      <point x="116" y="66"/>
      <point x="116" y="116" type="curve"/>
      <point x="130" y="127"/>
      <point x="147" y="135"/>
      <point x="165" y="140" type="curve"/>
      <point x="202" y="140"/>
      <point x="227" y="120"/>
      <point x="227" y="89" type="curve" smooth="yes"/>
      <point x="227" y="56"/>
      <point x="207" y="34"/>
      <point x="176" y="34" type="curve" smooth="yes"/>
    </contour>
  </outline>
</glyph>
<glyph name="two.dnom" format="1">
  <advance width="350"/>
  <outline>
    <contour>
      <point x="290" y="9"/>
      <point x="295" y="41"/>
      <point x="295" y="67" type="curve"/>
      <point x="271" y="59"/>
      <point x="231" y="54"/>
      <point x="192" y="54" type="curve" smooth="yes"/>
      <point x="179" y="54"/>
      <point x="162" y="55"/>
      <point x="148" y="57" type="curve"/>
      <point x="235" y="108"/>
      <point x="281" y="160"/>
      <point x="281" y="207" type="curve" smooth="yes"/>
      <point x="281" y="250"/>
      <point x="238" y="277"/>
      <point x="170" y="277" type="curve" smooth="yes"/>
      <point x="135" y="277"/>
      <point x="92" y="270"/>
      <point x="56" y="259" type="curve"/>
      <point x="56" y="236"/>
      <point x="67" y="203"/>
      <point x="80" y="188" type="curve"/>
      <point x="117" y="213"/>
      <point x="154" y="231"/>
      <point x="177" y="235" type="curve"/>
      <point x="200" y="233"/>
      <point x="213" y="221"/>
      <point x="213" y="203" type="curve" smooth="yes"/>
      <point x="213" y="158"/>
      <point x="161" y="101"/>
      <point x="52" y="24" type="curve"/>
      <point x="52" y="0" type="line"/>
      <point x="123" y="3"/>
      <point x="261" y="2"/>
      <point x="284" y="-3" type="curve"/>
    </contour>
  </outline>
</glyph>
<glyph name="zero.dnom" format="1">
  <advance width="350"/>
  <outline>
    <contour>
      <point x="256" y="-6"/>
      <point x="320" y="56"/>
      <point x="320" y="145" type="curve" smooth="yes"/>
      <point x="320" y="224"/>
      <point x="267" y="277"/>
      <point x="190" y="277" type="curve" smooth="yes"/>
      <point x="96" y="277"/>
      <point x="30" y="216"/>
      <point x="30" y="130" type="curve" smooth="yes"/>
      <point x="30" y="49"/>
      <point x="84" y="-6"/>
      <point x="164" y="-6" type="curve" smooth="yes"/>
    </contour>
    <contour>
      <point x="130" y="50"/>
      <point x="101" y="87"/>
      <point x="101" y="145" type="curve" smooth="yes"/>
      <point x="101" y="199"/>
      <point x="135" y="239"/>
      <point x="181" y="239" type="curve"/>
      <point x="223" y="231"/>
      <point x="248" y="194"/>
      <point x="248" y="142" type="curve" smooth="yes"/>
      <point x="248" y="85"/>
      <point x="219" y="50"/>
      <point x="173" y="50" type="curve" smooth="yes"/>
    </contour>
  </outline>
</glyph>
